G04 #@! TF.GenerationSoftware,KiCad,Pcbnew,5.0.0-rc2-unknown-a288d61~65~ubuntu18.04.1*
G04 #@! TF.CreationDate,2018-06-25T15:59:21+02:00*
G04 #@! TF.ProjectId,STM32_Sensor,53544D33325F53656E736F722E6B6963,rev?*
G04 #@! TF.SameCoordinates,Original*
G04 #@! TF.FileFunction,Legend,Top*
G04 #@! TF.FilePolarity,Positive*
%FSLAX46Y46*%
G04 Gerber Fmt 4.6, Leading zero omitted, Abs format (unit mm)*
G04 Created by KiCad (PCBNEW 5.0.0-rc2-unknown-a288d61~65~ubuntu18.04.1) date Mon Jun 25 15:59:21 2018*
%MOMM*%
%LPD*%
G01*
G04 APERTURE LIST*
%ADD10C,0.300000*%
%ADD11C,0.125000*%
%ADD12C,0.150000*%
%ADD13C,0.120000*%
%ADD14C,0.100000*%
G04 APERTURE END LIST*
D10*
X129486000Y-86106000D02*
G75*
G03X129486000Y-86106000I-200000J0D01*
G01*
D11*
X130663523Y-90118380D02*
X130734952Y-90142190D01*
X130854000Y-90142190D01*
X130901619Y-90118380D01*
X130925428Y-90094571D01*
X130949238Y-90046952D01*
X130949238Y-89999333D01*
X130925428Y-89951714D01*
X130901619Y-89927904D01*
X130854000Y-89904095D01*
X130758761Y-89880285D01*
X130711142Y-89856476D01*
X130687333Y-89832666D01*
X130663523Y-89785047D01*
X130663523Y-89737428D01*
X130687333Y-89689809D01*
X130711142Y-89666000D01*
X130758761Y-89642190D01*
X130877809Y-89642190D01*
X130949238Y-89666000D01*
X131092095Y-89642190D02*
X131377809Y-89642190D01*
X131234952Y-90142190D02*
X131234952Y-89642190D01*
X131544476Y-90142190D02*
X131544476Y-89642190D01*
X131711142Y-89999333D01*
X131877809Y-89642190D01*
X131877809Y-90142190D01*
X132068285Y-89642190D02*
X132377809Y-89642190D01*
X132211142Y-89832666D01*
X132282571Y-89832666D01*
X132330190Y-89856476D01*
X132354000Y-89880285D01*
X132377809Y-89927904D01*
X132377809Y-90046952D01*
X132354000Y-90094571D01*
X132330190Y-90118380D01*
X132282571Y-90142190D01*
X132139714Y-90142190D01*
X132092095Y-90118380D01*
X132068285Y-90094571D01*
X132568285Y-89689809D02*
X132592095Y-89666000D01*
X132639714Y-89642190D01*
X132758761Y-89642190D01*
X132806380Y-89666000D01*
X132830190Y-89689809D01*
X132854000Y-89737428D01*
X132854000Y-89785047D01*
X132830190Y-89856476D01*
X132544476Y-90142190D01*
X132854000Y-90142190D01*
X133234952Y-89880285D02*
X133068285Y-89880285D01*
X133068285Y-90142190D02*
X133068285Y-89642190D01*
X133306380Y-89642190D01*
X133758761Y-90142190D02*
X133473047Y-90142190D01*
X133615904Y-90142190D02*
X133615904Y-89642190D01*
X133568285Y-89713619D01*
X133520666Y-89761238D01*
X133473047Y-89785047D01*
X134068285Y-89642190D02*
X134115904Y-89642190D01*
X134163523Y-89666000D01*
X134187333Y-89689809D01*
X134211142Y-89737428D01*
X134234952Y-89832666D01*
X134234952Y-89951714D01*
X134211142Y-90046952D01*
X134187333Y-90094571D01*
X134163523Y-90118380D01*
X134115904Y-90142190D01*
X134068285Y-90142190D01*
X134020666Y-90118380D01*
X133996857Y-90094571D01*
X133973047Y-90046952D01*
X133949238Y-89951714D01*
X133949238Y-89832666D01*
X133973047Y-89737428D01*
X133996857Y-89689809D01*
X134020666Y-89666000D01*
X134068285Y-89642190D01*
X134401619Y-89642190D02*
X134711142Y-89642190D01*
X134544476Y-89832666D01*
X134615904Y-89832666D01*
X134663523Y-89856476D01*
X134687333Y-89880285D01*
X134711142Y-89927904D01*
X134711142Y-90046952D01*
X134687333Y-90094571D01*
X134663523Y-90118380D01*
X134615904Y-90142190D01*
X134473047Y-90142190D01*
X134425428Y-90118380D01*
X134401619Y-90094571D01*
X135211142Y-90094571D02*
X135187333Y-90118380D01*
X135115904Y-90142190D01*
X135068285Y-90142190D01*
X134996857Y-90118380D01*
X134949238Y-90070761D01*
X134925428Y-90023142D01*
X134901619Y-89927904D01*
X134901619Y-89856476D01*
X134925428Y-89761238D01*
X134949238Y-89713619D01*
X134996857Y-89666000D01*
X135068285Y-89642190D01*
X135115904Y-89642190D01*
X135187333Y-89666000D01*
X135211142Y-89689809D01*
X135496857Y-89856476D02*
X135449238Y-89832666D01*
X135425428Y-89808857D01*
X135401619Y-89761238D01*
X135401619Y-89737428D01*
X135425428Y-89689809D01*
X135449238Y-89666000D01*
X135496857Y-89642190D01*
X135592095Y-89642190D01*
X135639714Y-89666000D01*
X135663523Y-89689809D01*
X135687333Y-89737428D01*
X135687333Y-89761238D01*
X135663523Y-89808857D01*
X135639714Y-89832666D01*
X135592095Y-89856476D01*
X135496857Y-89856476D01*
X135449238Y-89880285D01*
X135425428Y-89904095D01*
X135401619Y-89951714D01*
X135401619Y-90046952D01*
X135425428Y-90094571D01*
X135449238Y-90118380D01*
X135496857Y-90142190D01*
X135592095Y-90142190D01*
X135639714Y-90118380D01*
X135663523Y-90094571D01*
X135687333Y-90046952D01*
X135687333Y-89951714D01*
X135663523Y-89904095D01*
X135639714Y-89880285D01*
X135592095Y-89856476D01*
X135830190Y-89642190D02*
X136115904Y-89642190D01*
X135973047Y-90142190D02*
X135973047Y-89642190D01*
X136496857Y-89642190D02*
X136401619Y-89642190D01*
X136354000Y-89666000D01*
X136330190Y-89689809D01*
X136282571Y-89761238D01*
X136258761Y-89856476D01*
X136258761Y-90046952D01*
X136282571Y-90094571D01*
X136306380Y-90118380D01*
X136354000Y-90142190D01*
X136449238Y-90142190D01*
X136496857Y-90118380D01*
X136520666Y-90094571D01*
X136544476Y-90046952D01*
X136544476Y-89927904D01*
X136520666Y-89880285D01*
X136496857Y-89856476D01*
X136449238Y-89832666D01*
X136354000Y-89832666D01*
X136306380Y-89856476D01*
X136282571Y-89880285D01*
X136258761Y-89927904D01*
X140291333Y-99377428D02*
X140291333Y-99139333D01*
X140434190Y-99425047D02*
X139934190Y-99258380D01*
X140434190Y-99091714D01*
X140434190Y-98925047D02*
X139934190Y-98925047D01*
X140434190Y-98639333D01*
X139934190Y-98639333D01*
X139934190Y-98472666D02*
X139934190Y-98186952D01*
X140434190Y-98329809D02*
X139934190Y-98329809D01*
X140188190Y-94106952D02*
X140188190Y-93821238D01*
X140688190Y-93964095D02*
X140188190Y-93964095D01*
X140188190Y-93702190D02*
X140688190Y-93368857D01*
X140188190Y-93368857D02*
X140688190Y-93702190D01*
X140688190Y-91269333D02*
X140450095Y-91436000D01*
X140688190Y-91555047D02*
X140188190Y-91555047D01*
X140188190Y-91364571D01*
X140212000Y-91316952D01*
X140235809Y-91293142D01*
X140283428Y-91269333D01*
X140354857Y-91269333D01*
X140402476Y-91293142D01*
X140426285Y-91316952D01*
X140450095Y-91364571D01*
X140450095Y-91555047D01*
X140188190Y-91102666D02*
X140688190Y-90769333D01*
X140188190Y-90769333D02*
X140688190Y-91102666D01*
X140226880Y-89324571D02*
X140250690Y-89253142D01*
X140250690Y-89134095D01*
X140226880Y-89086476D01*
X140203071Y-89062666D01*
X140155452Y-89038857D01*
X140107833Y-89038857D01*
X140060214Y-89062666D01*
X140036404Y-89086476D01*
X140012595Y-89134095D01*
X139988785Y-89229333D01*
X139964976Y-89276952D01*
X139941166Y-89300761D01*
X139893547Y-89324571D01*
X139845928Y-89324571D01*
X139798309Y-89300761D01*
X139774500Y-89276952D01*
X139750690Y-89229333D01*
X139750690Y-89110285D01*
X139774500Y-89038857D01*
X139750690Y-88872190D02*
X140250690Y-88753142D01*
X139893547Y-88657904D01*
X140250690Y-88562666D01*
X139750690Y-88443619D01*
X140250690Y-88253142D02*
X139750690Y-88253142D01*
X139750690Y-88134095D01*
X139774500Y-88062666D01*
X139822119Y-88015047D01*
X139869738Y-87991238D01*
X139964976Y-87967428D01*
X140036404Y-87967428D01*
X140131642Y-87991238D01*
X140179261Y-88015047D01*
X140226880Y-88062666D01*
X140250690Y-88134095D01*
X140250690Y-88253142D01*
X141125690Y-88907904D02*
X140625690Y-88907904D01*
X140625690Y-88574571D02*
X140625690Y-88479333D01*
X140649500Y-88431714D01*
X140697119Y-88384095D01*
X140792357Y-88360285D01*
X140959023Y-88360285D01*
X141054261Y-88384095D01*
X141101880Y-88431714D01*
X141125690Y-88479333D01*
X141125690Y-88574571D01*
X141101880Y-88622190D01*
X141054261Y-88669809D01*
X140959023Y-88693619D01*
X140792357Y-88693619D01*
X140697119Y-88669809D01*
X140649500Y-88622190D01*
X140625690Y-88574571D01*
X140226880Y-86784571D02*
X140250690Y-86713142D01*
X140250690Y-86594095D01*
X140226880Y-86546476D01*
X140203071Y-86522666D01*
X140155452Y-86498857D01*
X140107833Y-86498857D01*
X140060214Y-86522666D01*
X140036404Y-86546476D01*
X140012595Y-86594095D01*
X139988785Y-86689333D01*
X139964976Y-86736952D01*
X139941166Y-86760761D01*
X139893547Y-86784571D01*
X139845928Y-86784571D01*
X139798309Y-86760761D01*
X139774500Y-86736952D01*
X139750690Y-86689333D01*
X139750690Y-86570285D01*
X139774500Y-86498857D01*
X139750690Y-86332190D02*
X140250690Y-86213142D01*
X139893547Y-86117904D01*
X140250690Y-86022666D01*
X139750690Y-85903619D01*
X140250690Y-85713142D02*
X139750690Y-85713142D01*
X139750690Y-85594095D01*
X139774500Y-85522666D01*
X139822119Y-85475047D01*
X139869738Y-85451238D01*
X139964976Y-85427428D01*
X140036404Y-85427428D01*
X140131642Y-85451238D01*
X140179261Y-85475047D01*
X140226880Y-85522666D01*
X140250690Y-85594095D01*
X140250690Y-85713142D01*
X141078071Y-86403619D02*
X141101880Y-86427428D01*
X141125690Y-86498857D01*
X141125690Y-86546476D01*
X141101880Y-86617904D01*
X141054261Y-86665523D01*
X141006642Y-86689333D01*
X140911404Y-86713142D01*
X140839976Y-86713142D01*
X140744738Y-86689333D01*
X140697119Y-86665523D01*
X140649500Y-86617904D01*
X140625690Y-86546476D01*
X140625690Y-86498857D01*
X140649500Y-86427428D01*
X140673309Y-86403619D01*
X141125690Y-85951238D02*
X141125690Y-86189333D01*
X140625690Y-86189333D01*
X141125690Y-85784571D02*
X140625690Y-85784571D01*
X141125690Y-85498857D02*
X140839976Y-85713142D01*
X140625690Y-85498857D02*
X140911404Y-85784571D01*
X140188190Y-84304095D02*
X140188190Y-83994571D01*
X140378666Y-84161238D01*
X140378666Y-84089809D01*
X140402476Y-84042190D01*
X140426285Y-84018380D01*
X140473904Y-83994571D01*
X140592952Y-83994571D01*
X140640571Y-84018380D01*
X140664380Y-84042190D01*
X140688190Y-84089809D01*
X140688190Y-84232666D01*
X140664380Y-84280285D01*
X140640571Y-84304095D01*
X140640571Y-83780285D02*
X140664380Y-83756476D01*
X140688190Y-83780285D01*
X140664380Y-83804095D01*
X140640571Y-83780285D01*
X140688190Y-83780285D01*
X140188190Y-83589809D02*
X140188190Y-83280285D01*
X140378666Y-83446952D01*
X140378666Y-83375523D01*
X140402476Y-83327904D01*
X140426285Y-83304095D01*
X140473904Y-83280285D01*
X140592952Y-83280285D01*
X140640571Y-83304095D01*
X140664380Y-83327904D01*
X140688190Y-83375523D01*
X140688190Y-83518380D01*
X140664380Y-83566000D01*
X140640571Y-83589809D01*
X140188190Y-83137428D02*
X140688190Y-82970761D01*
X140188190Y-82804095D01*
X140212000Y-81406952D02*
X140188190Y-81454571D01*
X140188190Y-81526000D01*
X140212000Y-81597428D01*
X140259619Y-81645047D01*
X140307238Y-81668857D01*
X140402476Y-81692666D01*
X140473904Y-81692666D01*
X140569142Y-81668857D01*
X140616761Y-81645047D01*
X140664380Y-81597428D01*
X140688190Y-81526000D01*
X140688190Y-81478380D01*
X140664380Y-81406952D01*
X140640571Y-81383142D01*
X140473904Y-81383142D01*
X140473904Y-81478380D01*
X140688190Y-81168857D02*
X140188190Y-81168857D01*
X140688190Y-80883142D01*
X140188190Y-80883142D01*
X140688190Y-80645047D02*
X140188190Y-80645047D01*
X140188190Y-80526000D01*
X140212000Y-80454571D01*
X140259619Y-80406952D01*
X140307238Y-80383142D01*
X140402476Y-80359333D01*
X140473904Y-80359333D01*
X140569142Y-80383142D01*
X140616761Y-80406952D01*
X140664380Y-80454571D01*
X140688190Y-80526000D01*
X140688190Y-80645047D01*
X120808857Y-97508190D02*
X120808857Y-97008190D01*
X120999333Y-97008190D01*
X121046952Y-97032000D01*
X121070761Y-97055809D01*
X121094571Y-97103428D01*
X121094571Y-97174857D01*
X121070761Y-97222476D01*
X121046952Y-97246285D01*
X120999333Y-97270095D01*
X120808857Y-97270095D01*
X121475523Y-97246285D02*
X121546952Y-97270095D01*
X121570761Y-97293904D01*
X121594571Y-97341523D01*
X121594571Y-97412952D01*
X121570761Y-97460571D01*
X121546952Y-97484380D01*
X121499333Y-97508190D01*
X121308857Y-97508190D01*
X121308857Y-97008190D01*
X121475523Y-97008190D01*
X121523142Y-97032000D01*
X121546952Y-97055809D01*
X121570761Y-97103428D01*
X121570761Y-97151047D01*
X121546952Y-97198666D01*
X121523142Y-97222476D01*
X121475523Y-97246285D01*
X121308857Y-97246285D01*
X122070761Y-97508190D02*
X121785047Y-97508190D01*
X121927904Y-97508190D02*
X121927904Y-97008190D01*
X121880285Y-97079619D01*
X121832666Y-97127238D01*
X121785047Y-97151047D01*
X122546952Y-97508190D02*
X122261238Y-97508190D01*
X122404095Y-97508190D02*
X122404095Y-97008190D01*
X122356476Y-97079619D01*
X122308857Y-97127238D01*
X122261238Y-97151047D01*
X118268857Y-97508190D02*
X118268857Y-97008190D01*
X118459333Y-97008190D01*
X118506952Y-97032000D01*
X118530761Y-97055809D01*
X118554571Y-97103428D01*
X118554571Y-97174857D01*
X118530761Y-97222476D01*
X118506952Y-97246285D01*
X118459333Y-97270095D01*
X118268857Y-97270095D01*
X118935523Y-97246285D02*
X119006952Y-97270095D01*
X119030761Y-97293904D01*
X119054571Y-97341523D01*
X119054571Y-97412952D01*
X119030761Y-97460571D01*
X119006952Y-97484380D01*
X118959333Y-97508190D01*
X118768857Y-97508190D01*
X118768857Y-97008190D01*
X118935523Y-97008190D01*
X118983142Y-97032000D01*
X119006952Y-97055809D01*
X119030761Y-97103428D01*
X119030761Y-97151047D01*
X119006952Y-97198666D01*
X118983142Y-97222476D01*
X118935523Y-97246285D01*
X118768857Y-97246285D01*
X119530761Y-97508190D02*
X119245047Y-97508190D01*
X119387904Y-97508190D02*
X119387904Y-97008190D01*
X119340285Y-97079619D01*
X119292666Y-97127238D01*
X119245047Y-97151047D01*
X119840285Y-97008190D02*
X119887904Y-97008190D01*
X119935523Y-97032000D01*
X119959333Y-97055809D01*
X119983142Y-97103428D01*
X120006952Y-97198666D01*
X120006952Y-97317714D01*
X119983142Y-97412952D01*
X119959333Y-97460571D01*
X119935523Y-97484380D01*
X119887904Y-97508190D01*
X119840285Y-97508190D01*
X119792666Y-97484380D01*
X119768857Y-97460571D01*
X119745047Y-97412952D01*
X119721238Y-97317714D01*
X119721238Y-97198666D01*
X119745047Y-97103428D01*
X119768857Y-97055809D01*
X119792666Y-97032000D01*
X119840285Y-97008190D01*
X115966952Y-97508190D02*
X115966952Y-97008190D01*
X116157428Y-97008190D01*
X116205047Y-97032000D01*
X116228857Y-97055809D01*
X116252666Y-97103428D01*
X116252666Y-97174857D01*
X116228857Y-97222476D01*
X116205047Y-97246285D01*
X116157428Y-97270095D01*
X115966952Y-97270095D01*
X116633619Y-97246285D02*
X116705047Y-97270095D01*
X116728857Y-97293904D01*
X116752666Y-97341523D01*
X116752666Y-97412952D01*
X116728857Y-97460571D01*
X116705047Y-97484380D01*
X116657428Y-97508190D01*
X116466952Y-97508190D01*
X116466952Y-97008190D01*
X116633619Y-97008190D01*
X116681238Y-97032000D01*
X116705047Y-97055809D01*
X116728857Y-97103428D01*
X116728857Y-97151047D01*
X116705047Y-97198666D01*
X116681238Y-97222476D01*
X116633619Y-97246285D01*
X116466952Y-97246285D01*
X117228857Y-97508190D02*
X116943142Y-97508190D01*
X117086000Y-97508190D02*
X117086000Y-97008190D01*
X117038380Y-97079619D01*
X116990761Y-97127238D01*
X116943142Y-97151047D01*
X113426952Y-97508190D02*
X113426952Y-97008190D01*
X113617428Y-97008190D01*
X113665047Y-97032000D01*
X113688857Y-97055809D01*
X113712666Y-97103428D01*
X113712666Y-97174857D01*
X113688857Y-97222476D01*
X113665047Y-97246285D01*
X113617428Y-97270095D01*
X113426952Y-97270095D01*
X114093619Y-97246285D02*
X114165047Y-97270095D01*
X114188857Y-97293904D01*
X114212666Y-97341523D01*
X114212666Y-97412952D01*
X114188857Y-97460571D01*
X114165047Y-97484380D01*
X114117428Y-97508190D01*
X113926952Y-97508190D01*
X113926952Y-97008190D01*
X114093619Y-97008190D01*
X114141238Y-97032000D01*
X114165047Y-97055809D01*
X114188857Y-97103428D01*
X114188857Y-97151047D01*
X114165047Y-97198666D01*
X114141238Y-97222476D01*
X114093619Y-97246285D01*
X113926952Y-97246285D01*
X114522190Y-97008190D02*
X114569809Y-97008190D01*
X114617428Y-97032000D01*
X114641238Y-97055809D01*
X114665047Y-97103428D01*
X114688857Y-97198666D01*
X114688857Y-97317714D01*
X114665047Y-97412952D01*
X114641238Y-97460571D01*
X114617428Y-97484380D01*
X114569809Y-97508190D01*
X114522190Y-97508190D01*
X114474571Y-97484380D01*
X114450761Y-97460571D01*
X114426952Y-97412952D01*
X114403142Y-97317714D01*
X114403142Y-97198666D01*
X114426952Y-97103428D01*
X114450761Y-97055809D01*
X114474571Y-97032000D01*
X114522190Y-97008190D01*
X110922666Y-97508190D02*
X110922666Y-97008190D01*
X111113142Y-97008190D01*
X111160761Y-97032000D01*
X111184571Y-97055809D01*
X111208380Y-97103428D01*
X111208380Y-97174857D01*
X111184571Y-97222476D01*
X111160761Y-97246285D01*
X111113142Y-97270095D01*
X110922666Y-97270095D01*
X111398857Y-97365333D02*
X111636952Y-97365333D01*
X111351238Y-97508190D02*
X111517904Y-97008190D01*
X111684571Y-97508190D01*
X112113142Y-97508190D02*
X111827428Y-97508190D01*
X111970285Y-97508190D02*
X111970285Y-97008190D01*
X111922666Y-97079619D01*
X111875047Y-97127238D01*
X111827428Y-97151047D01*
X108382666Y-97508190D02*
X108382666Y-97008190D01*
X108573142Y-97008190D01*
X108620761Y-97032000D01*
X108644571Y-97055809D01*
X108668380Y-97103428D01*
X108668380Y-97174857D01*
X108644571Y-97222476D01*
X108620761Y-97246285D01*
X108573142Y-97270095D01*
X108382666Y-97270095D01*
X108858857Y-97365333D02*
X109096952Y-97365333D01*
X108811238Y-97508190D02*
X108977904Y-97008190D01*
X109144571Y-97508190D01*
X109406476Y-97008190D02*
X109454095Y-97008190D01*
X109501714Y-97032000D01*
X109525523Y-97055809D01*
X109549333Y-97103428D01*
X109573142Y-97198666D01*
X109573142Y-97317714D01*
X109549333Y-97412952D01*
X109525523Y-97460571D01*
X109501714Y-97484380D01*
X109454095Y-97508190D01*
X109406476Y-97508190D01*
X109358857Y-97484380D01*
X109335047Y-97460571D01*
X109311238Y-97412952D01*
X109287428Y-97317714D01*
X109287428Y-97198666D01*
X109311238Y-97103428D01*
X109335047Y-97055809D01*
X109358857Y-97032000D01*
X109406476Y-97008190D01*
D12*
G04 #@! TO.C,U1*
X129845000Y-87375000D02*
X128470000Y-87375000D01*
X137095000Y-86925000D02*
X136570000Y-86925000D01*
X137095000Y-94175000D02*
X136570000Y-94175000D01*
X129845000Y-94175000D02*
X130370000Y-94175000D01*
X129845000Y-86925000D02*
X130370000Y-86925000D01*
X129845000Y-94175000D02*
X129845000Y-93650000D01*
X137095000Y-94175000D02*
X137095000Y-93650000D01*
X137095000Y-86925000D02*
X137095000Y-87450000D01*
X129845000Y-86925000D02*
X129845000Y-87375000D01*
D13*
G04 #@! TO.C,R1*
X124722000Y-94824000D02*
X125722000Y-94824000D01*
X125722000Y-96184000D02*
X124722000Y-96184000D01*
G04 #@! TO.C,J2*
X141420000Y-97490000D02*
X142750000Y-97490000D01*
X141420000Y-98820000D02*
X141420000Y-97490000D01*
X141420000Y-100090000D02*
X144080000Y-100090000D01*
X144080000Y-100090000D02*
X144080000Y-100150000D01*
X141420000Y-100090000D02*
X141420000Y-100150000D01*
X141420000Y-100150000D02*
X144080000Y-100150000D01*
G04 #@! TO.C,C1*
X124618000Y-93380000D02*
X125318000Y-93380000D01*
X125318000Y-94580000D02*
X124618000Y-94580000D01*
G04 #@! TO.C,C2*
X136429000Y-83664500D02*
X137129000Y-83664500D01*
X137129000Y-84864500D02*
X136429000Y-84864500D01*
G04 #@! TO.C,C3*
X137764000Y-97374000D02*
X137064000Y-97374000D01*
X137064000Y-96174000D02*
X137764000Y-96174000D01*
G04 #@! TO.C,C4*
X130525000Y-97374000D02*
X129825000Y-97374000D01*
X129825000Y-96174000D02*
X130525000Y-96174000D01*
G04 #@! TO.C,C6*
X130461500Y-82578500D02*
X129761500Y-82578500D01*
X129761500Y-81378500D02*
X130461500Y-81378500D01*
G04 #@! TO.C,C7*
X129825000Y-83728000D02*
X130525000Y-83728000D01*
X130525000Y-84928000D02*
X129825000Y-84928000D01*
G04 #@! TO.C,C8*
X125888000Y-86776000D02*
X126588000Y-86776000D01*
X126588000Y-87976000D02*
X125888000Y-87976000D01*
G04 #@! TO.C,C9*
X126588000Y-89500000D02*
X125888000Y-89500000D01*
X125888000Y-88300000D02*
X126588000Y-88300000D01*
G04 #@! TO.C,R2*
X113456000Y-90770000D02*
X113456000Y-91770000D01*
X112096000Y-91770000D02*
X112096000Y-90770000D01*
G04 #@! TO.C,R3*
X113874000Y-91770000D02*
X113874000Y-90770000D01*
X115234000Y-90770000D02*
X115234000Y-91770000D01*
D12*
G04 #@! TO.C,Y1*
X126126000Y-89840000D02*
X126126000Y-93040000D01*
X126126000Y-93040000D02*
X124826000Y-93040000D01*
X124826000Y-89840000D02*
X124826000Y-93040000D01*
X126126000Y-89840000D02*
X124826000Y-89840000D01*
D13*
G04 #@! TO.C,Y2*
X124088000Y-87638000D02*
G75*
G03X124088000Y-88638000I0J-500000D01*
G01*
X117988000Y-86338000D02*
X121788000Y-86338000D01*
X124088000Y-86338000D02*
X123618000Y-86338000D01*
X124088000Y-89938000D02*
X123618000Y-89938000D01*
X124088000Y-86338000D02*
X124088000Y-87638000D01*
X124088000Y-88638000D02*
X124088000Y-89938000D01*
X121788000Y-89938000D02*
X117988000Y-89938000D01*
X115688000Y-86338000D02*
X116158000Y-86338000D01*
X115688000Y-89938000D02*
X115688000Y-86338000D01*
X116158000Y-89938000D02*
X115688000Y-89938000D01*
G04 #@! TO.C,SW1*
X107878000Y-89356000D02*
X107878000Y-95556000D01*
X111578000Y-95556000D02*
X111578000Y-89356000D01*
X111578000Y-89356000D02*
X110928000Y-89356000D01*
X108528000Y-89356000D02*
X107878000Y-89356000D01*
X107878000Y-95556000D02*
X108528000Y-95556000D01*
X111578000Y-95556000D02*
X110928000Y-95556000D01*
D12*
G04 #@! TO.C,SW2*
X110274000Y-82070000D02*
X108674000Y-82070000D01*
X108674000Y-82070000D02*
X108674000Y-85570000D01*
X110274000Y-82070000D02*
X110274000Y-85570000D01*
X110274000Y-85570000D02*
X108674000Y-85570000D01*
X111324000Y-79570000D02*
X107624000Y-79570000D01*
X107624000Y-79570000D02*
X107624000Y-88070000D01*
X111324000Y-88070000D02*
X107624000Y-88070000D01*
X111324000Y-79570000D02*
X111324000Y-88070000D01*
G04 #@! TO.C,SW3*
X115388000Y-79570000D02*
X115388000Y-88070000D01*
X115388000Y-88070000D02*
X111688000Y-88070000D01*
X111688000Y-79570000D02*
X111688000Y-88070000D01*
X115388000Y-79570000D02*
X111688000Y-79570000D01*
X114338000Y-85570000D02*
X112738000Y-85570000D01*
X114338000Y-82070000D02*
X114338000Y-85570000D01*
X112738000Y-82070000D02*
X112738000Y-85570000D01*
X114338000Y-82070000D02*
X112738000Y-82070000D01*
D13*
G04 #@! TO.C,J1*
X141010000Y-79700000D02*
X142340000Y-79700000D01*
X141010000Y-81030000D02*
X141010000Y-79700000D01*
X141010000Y-82300000D02*
X143670000Y-82300000D01*
X143670000Y-82300000D02*
X143670000Y-95060000D01*
X141010000Y-82300000D02*
X141010000Y-95060000D01*
X141010000Y-95060000D02*
X143670000Y-95060000D01*
G04 #@! TO.C,J3*
X107636000Y-100390000D02*
X107636000Y-99060000D01*
X108966000Y-100390000D02*
X107636000Y-100390000D01*
X110236000Y-100390000D02*
X110236000Y-97730000D01*
X110236000Y-97730000D02*
X122996000Y-97730000D01*
X110236000Y-100390000D02*
X122996000Y-100390000D01*
X122996000Y-100390000D02*
X122996000Y-97730000D01*
G04 #@! TO.C,R1*
D12*
X125055333Y-97480380D02*
X124722000Y-97004190D01*
X124483904Y-97480380D02*
X124483904Y-96480380D01*
X124864857Y-96480380D01*
X124960095Y-96528000D01*
X125007714Y-96575619D01*
X125055333Y-96670857D01*
X125055333Y-96813714D01*
X125007714Y-96908952D01*
X124960095Y-96956571D01*
X124864857Y-97004190D01*
X124483904Y-97004190D01*
X126007714Y-97480380D02*
X125436285Y-97480380D01*
X125722000Y-97480380D02*
X125722000Y-96480380D01*
X125626761Y-96623238D01*
X125531523Y-96718476D01*
X125436285Y-96766095D01*
G04 #@! TO.C,C1*
X121753333Y-94337142D02*
X121705714Y-94384761D01*
X121562857Y-94432380D01*
X121467619Y-94432380D01*
X121324761Y-94384761D01*
X121229523Y-94289523D01*
X121181904Y-94194285D01*
X121134285Y-94003809D01*
X121134285Y-93860952D01*
X121181904Y-93670476D01*
X121229523Y-93575238D01*
X121324761Y-93480000D01*
X121467619Y-93432380D01*
X121562857Y-93432380D01*
X121705714Y-93480000D01*
X121753333Y-93527619D01*
X122705714Y-94432380D02*
X122134285Y-94432380D01*
X122420000Y-94432380D02*
X122420000Y-93432380D01*
X122324761Y-93575238D01*
X122229523Y-93670476D01*
X122134285Y-93718095D01*
G04 #@! TO.C,C2*
X136231333Y-83161142D02*
X136183714Y-83208761D01*
X136040857Y-83256380D01*
X135945619Y-83256380D01*
X135802761Y-83208761D01*
X135707523Y-83113523D01*
X135659904Y-83018285D01*
X135612285Y-82827809D01*
X135612285Y-82684952D01*
X135659904Y-82494476D01*
X135707523Y-82399238D01*
X135802761Y-82304000D01*
X135945619Y-82256380D01*
X136040857Y-82256380D01*
X136183714Y-82304000D01*
X136231333Y-82351619D01*
X136612285Y-82351619D02*
X136659904Y-82304000D01*
X136755142Y-82256380D01*
X136993238Y-82256380D01*
X137088476Y-82304000D01*
X137136095Y-82351619D01*
X137183714Y-82446857D01*
X137183714Y-82542095D01*
X137136095Y-82684952D01*
X136564666Y-83256380D01*
X137183714Y-83256380D01*
G04 #@! TO.C,C3*
X137247333Y-98655142D02*
X137199714Y-98702761D01*
X137056857Y-98750380D01*
X136961619Y-98750380D01*
X136818761Y-98702761D01*
X136723523Y-98607523D01*
X136675904Y-98512285D01*
X136628285Y-98321809D01*
X136628285Y-98178952D01*
X136675904Y-97988476D01*
X136723523Y-97893238D01*
X136818761Y-97798000D01*
X136961619Y-97750380D01*
X137056857Y-97750380D01*
X137199714Y-97798000D01*
X137247333Y-97845619D01*
X137580666Y-97750380D02*
X138199714Y-97750380D01*
X137866380Y-98131333D01*
X138009238Y-98131333D01*
X138104476Y-98178952D01*
X138152095Y-98226571D01*
X138199714Y-98321809D01*
X138199714Y-98559904D01*
X138152095Y-98655142D01*
X138104476Y-98702761D01*
X138009238Y-98750380D01*
X137723523Y-98750380D01*
X137628285Y-98702761D01*
X137580666Y-98655142D01*
G04 #@! TO.C,C4*
X129881333Y-98655142D02*
X129833714Y-98702761D01*
X129690857Y-98750380D01*
X129595619Y-98750380D01*
X129452761Y-98702761D01*
X129357523Y-98607523D01*
X129309904Y-98512285D01*
X129262285Y-98321809D01*
X129262285Y-98178952D01*
X129309904Y-97988476D01*
X129357523Y-97893238D01*
X129452761Y-97798000D01*
X129595619Y-97750380D01*
X129690857Y-97750380D01*
X129833714Y-97798000D01*
X129881333Y-97845619D01*
X130738476Y-98083714D02*
X130738476Y-98750380D01*
X130500380Y-97702761D02*
X130262285Y-98417047D01*
X130881333Y-98417047D01*
G04 #@! TO.C,C6*
X129944833Y-81085642D02*
X129897214Y-81133261D01*
X129754357Y-81180880D01*
X129659119Y-81180880D01*
X129516261Y-81133261D01*
X129421023Y-81038023D01*
X129373404Y-80942785D01*
X129325785Y-80752309D01*
X129325785Y-80609452D01*
X129373404Y-80418976D01*
X129421023Y-80323738D01*
X129516261Y-80228500D01*
X129659119Y-80180880D01*
X129754357Y-80180880D01*
X129897214Y-80228500D01*
X129944833Y-80276119D01*
X130801976Y-80180880D02*
X130611500Y-80180880D01*
X130516261Y-80228500D01*
X130468642Y-80276119D01*
X130373404Y-80418976D01*
X130325785Y-80609452D01*
X130325785Y-80990404D01*
X130373404Y-81085642D01*
X130421023Y-81133261D01*
X130516261Y-81180880D01*
X130706738Y-81180880D01*
X130801976Y-81133261D01*
X130849595Y-81085642D01*
X130897214Y-80990404D01*
X130897214Y-80752309D01*
X130849595Y-80657071D01*
X130801976Y-80609452D01*
X130706738Y-80561833D01*
X130516261Y-80561833D01*
X130421023Y-80609452D01*
X130373404Y-80657071D01*
X130325785Y-80752309D01*
G04 #@! TO.C,C7*
X130008333Y-83435142D02*
X129960714Y-83482761D01*
X129817857Y-83530380D01*
X129722619Y-83530380D01*
X129579761Y-83482761D01*
X129484523Y-83387523D01*
X129436904Y-83292285D01*
X129389285Y-83101809D01*
X129389285Y-82958952D01*
X129436904Y-82768476D01*
X129484523Y-82673238D01*
X129579761Y-82578000D01*
X129722619Y-82530380D01*
X129817857Y-82530380D01*
X129960714Y-82578000D01*
X130008333Y-82625619D01*
X130341666Y-82530380D02*
X131008333Y-82530380D01*
X130579761Y-83530380D01*
G04 #@! TO.C,C8*
X127087333Y-86463142D02*
X127039714Y-86510761D01*
X126896857Y-86558380D01*
X126801619Y-86558380D01*
X126658761Y-86510761D01*
X126563523Y-86415523D01*
X126515904Y-86320285D01*
X126468285Y-86129809D01*
X126468285Y-85986952D01*
X126515904Y-85796476D01*
X126563523Y-85701238D01*
X126658761Y-85606000D01*
X126801619Y-85558380D01*
X126896857Y-85558380D01*
X127039714Y-85606000D01*
X127087333Y-85653619D01*
X127658761Y-85986952D02*
X127563523Y-85939333D01*
X127515904Y-85891714D01*
X127468285Y-85796476D01*
X127468285Y-85748857D01*
X127515904Y-85653619D01*
X127563523Y-85606000D01*
X127658761Y-85558380D01*
X127849238Y-85558380D01*
X127944476Y-85606000D01*
X127992095Y-85653619D01*
X128039714Y-85748857D01*
X128039714Y-85796476D01*
X127992095Y-85891714D01*
X127944476Y-85939333D01*
X127849238Y-85986952D01*
X127658761Y-85986952D01*
X127563523Y-86034571D01*
X127515904Y-86082190D01*
X127468285Y-86177428D01*
X127468285Y-86367904D01*
X127515904Y-86463142D01*
X127563523Y-86510761D01*
X127658761Y-86558380D01*
X127849238Y-86558380D01*
X127944476Y-86510761D01*
X127992095Y-86463142D01*
X128039714Y-86367904D01*
X128039714Y-86177428D01*
X127992095Y-86082190D01*
X127944476Y-86034571D01*
X127849238Y-85986952D01*
G04 #@! TO.C,C9*
D14*
X127441333Y-90058857D02*
X127422285Y-90077904D01*
X127365142Y-90096952D01*
X127327047Y-90096952D01*
X127269904Y-90077904D01*
X127231809Y-90039809D01*
X127212761Y-90001714D01*
X127193714Y-89925523D01*
X127193714Y-89868380D01*
X127212761Y-89792190D01*
X127231809Y-89754095D01*
X127269904Y-89716000D01*
X127327047Y-89696952D01*
X127365142Y-89696952D01*
X127422285Y-89716000D01*
X127441333Y-89735047D01*
X127631809Y-90096952D02*
X127708000Y-90096952D01*
X127746095Y-90077904D01*
X127765142Y-90058857D01*
X127803238Y-90001714D01*
X127822285Y-89925523D01*
X127822285Y-89773142D01*
X127803238Y-89735047D01*
X127784190Y-89716000D01*
X127746095Y-89696952D01*
X127669904Y-89696952D01*
X127631809Y-89716000D01*
X127612761Y-89735047D01*
X127593714Y-89773142D01*
X127593714Y-89868380D01*
X127612761Y-89906476D01*
X127631809Y-89925523D01*
X127669904Y-89944571D01*
X127746095Y-89944571D01*
X127784190Y-89925523D01*
X127803238Y-89906476D01*
X127822285Y-89868380D01*
G04 #@! TO.C,R2*
D12*
X112659333Y-94296666D02*
X112426000Y-93963333D01*
X112259333Y-94296666D02*
X112259333Y-93596666D01*
X112526000Y-93596666D01*
X112592666Y-93630000D01*
X112626000Y-93663333D01*
X112659333Y-93730000D01*
X112659333Y-93830000D01*
X112626000Y-93896666D01*
X112592666Y-93930000D01*
X112526000Y-93963333D01*
X112259333Y-93963333D01*
X112926000Y-93663333D02*
X112959333Y-93630000D01*
X113026000Y-93596666D01*
X113192666Y-93596666D01*
X113259333Y-93630000D01*
X113292666Y-93663333D01*
X113326000Y-93730000D01*
X113326000Y-93796666D01*
X113292666Y-93896666D01*
X112892666Y-94296666D01*
X113326000Y-94296666D01*
G04 #@! TO.C,R3*
X114437333Y-94296666D02*
X114204000Y-93963333D01*
X114037333Y-94296666D02*
X114037333Y-93596666D01*
X114304000Y-93596666D01*
X114370666Y-93630000D01*
X114404000Y-93663333D01*
X114437333Y-93730000D01*
X114437333Y-93830000D01*
X114404000Y-93896666D01*
X114370666Y-93930000D01*
X114304000Y-93963333D01*
X114037333Y-93963333D01*
X114670666Y-93596666D02*
X115104000Y-93596666D01*
X114870666Y-93863333D01*
X114970666Y-93863333D01*
X115037333Y-93896666D01*
X115070666Y-93930000D01*
X115104000Y-93996666D01*
X115104000Y-94163333D01*
X115070666Y-94230000D01*
X115037333Y-94263333D01*
X114970666Y-94296666D01*
X114770666Y-94296666D01*
X114704000Y-94263333D01*
X114670666Y-94230000D01*
G04 #@! TO.C,Y1*
X123928190Y-92678190D02*
X124404380Y-92678190D01*
X123404380Y-93011523D02*
X123928190Y-92678190D01*
X123404380Y-92344857D01*
X124404380Y-91487714D02*
X124404380Y-92059142D01*
X124404380Y-91773428D02*
X123404380Y-91773428D01*
X123547238Y-91868666D01*
X123642476Y-91963904D01*
X123690095Y-92059142D01*
G04 #@! TO.C,Y2*
X119401809Y-88194190D02*
X119401809Y-88670380D01*
X119068476Y-87670380D02*
X119401809Y-88194190D01*
X119735142Y-87670380D01*
X120020857Y-87765619D02*
X120068476Y-87718000D01*
X120163714Y-87670380D01*
X120401809Y-87670380D01*
X120497047Y-87718000D01*
X120544666Y-87765619D01*
X120592285Y-87860857D01*
X120592285Y-87956095D01*
X120544666Y-88098952D01*
X119973238Y-88670380D01*
X120592285Y-88670380D01*
G04 #@! TO.C,SW1*
X109162761Y-93919333D02*
X109210380Y-93776476D01*
X109210380Y-93538380D01*
X109162761Y-93443142D01*
X109115142Y-93395523D01*
X109019904Y-93347904D01*
X108924666Y-93347904D01*
X108829428Y-93395523D01*
X108781809Y-93443142D01*
X108734190Y-93538380D01*
X108686571Y-93728857D01*
X108638952Y-93824095D01*
X108591333Y-93871714D01*
X108496095Y-93919333D01*
X108400857Y-93919333D01*
X108305619Y-93871714D01*
X108258000Y-93824095D01*
X108210380Y-93728857D01*
X108210380Y-93490761D01*
X108258000Y-93347904D01*
X108210380Y-93014571D02*
X109210380Y-92776476D01*
X108496095Y-92586000D01*
X109210380Y-92395523D01*
X108210380Y-92157428D01*
X109210380Y-91252666D02*
X109210380Y-91824095D01*
X109210380Y-91538380D02*
X108210380Y-91538380D01*
X108353238Y-91633619D01*
X108448476Y-91728857D01*
X108496095Y-91824095D01*
G04 #@! TO.C,SW2*
X108918761Y-87723333D02*
X108966380Y-87580476D01*
X108966380Y-87342380D01*
X108918761Y-87247142D01*
X108871142Y-87199523D01*
X108775904Y-87151904D01*
X108680666Y-87151904D01*
X108585428Y-87199523D01*
X108537809Y-87247142D01*
X108490190Y-87342380D01*
X108442571Y-87532857D01*
X108394952Y-87628095D01*
X108347333Y-87675714D01*
X108252095Y-87723333D01*
X108156857Y-87723333D01*
X108061619Y-87675714D01*
X108014000Y-87628095D01*
X107966380Y-87532857D01*
X107966380Y-87294761D01*
X108014000Y-87151904D01*
X107966380Y-86818571D02*
X108966380Y-86580476D01*
X108252095Y-86390000D01*
X108966380Y-86199523D01*
X107966380Y-85961428D01*
X108061619Y-85628095D02*
X108014000Y-85580476D01*
X107966380Y-85485238D01*
X107966380Y-85247142D01*
X108014000Y-85151904D01*
X108061619Y-85104285D01*
X108156857Y-85056666D01*
X108252095Y-85056666D01*
X108394952Y-85104285D01*
X108966380Y-85675714D01*
X108966380Y-85056666D01*
G04 #@! TO.C,SW3*
X112882761Y-87803333D02*
X112930380Y-87660476D01*
X112930380Y-87422380D01*
X112882761Y-87327142D01*
X112835142Y-87279523D01*
X112739904Y-87231904D01*
X112644666Y-87231904D01*
X112549428Y-87279523D01*
X112501809Y-87327142D01*
X112454190Y-87422380D01*
X112406571Y-87612857D01*
X112358952Y-87708095D01*
X112311333Y-87755714D01*
X112216095Y-87803333D01*
X112120857Y-87803333D01*
X112025619Y-87755714D01*
X111978000Y-87708095D01*
X111930380Y-87612857D01*
X111930380Y-87374761D01*
X111978000Y-87231904D01*
X111930380Y-86898571D02*
X112930380Y-86660476D01*
X112216095Y-86470000D01*
X112930380Y-86279523D01*
X111930380Y-86041428D01*
X111930380Y-85755714D02*
X111930380Y-85136666D01*
X112311333Y-85470000D01*
X112311333Y-85327142D01*
X112358952Y-85231904D01*
X112406571Y-85184285D01*
X112501809Y-85136666D01*
X112739904Y-85136666D01*
X112835142Y-85184285D01*
X112882761Y-85231904D01*
X112930380Y-85327142D01*
X112930380Y-85612857D01*
X112882761Y-85708095D01*
X112835142Y-85755714D01*
G04 #@! TO.C,J1*
X142006666Y-78152380D02*
X142006666Y-78866666D01*
X141959047Y-79009523D01*
X141863809Y-79104761D01*
X141720952Y-79152380D01*
X141625714Y-79152380D01*
X143006666Y-79152380D02*
X142435238Y-79152380D01*
X142720952Y-79152380D02*
X142720952Y-78152380D01*
X142625714Y-78295238D01*
X142530476Y-78390476D01*
X142435238Y-78438095D01*
G04 #@! TD*
M02*
