G04 #@! TF.GenerationSoftware,KiCad,Pcbnew,5.0.0-rc2-unknown-a288d61~65~ubuntu18.04.1*
G04 #@! TF.CreationDate,2018-06-25T15:59:21+02:00*
G04 #@! TF.ProjectId,STM32_Sensor,53544D33325F53656E736F722E6B6963,rev?*
G04 #@! TF.SameCoordinates,Original*
G04 #@! TF.FileFunction,Copper,L1,Top,Signal*
G04 #@! TF.FilePolarity,Positive*
%FSLAX46Y46*%
G04 Gerber Fmt 4.6, Leading zero omitted, Abs format (unit mm)*
G04 Created by KiCad (PCBNEW 5.0.0-rc2-unknown-a288d61~65~ubuntu18.04.1) date Mon Jun 25 15:59:21 2018*
%MOMM*%
%LPD*%
G01*
G04 APERTURE LIST*
G04 #@! TA.AperFunction,SMDPad,CuDef*
%ADD10R,0.250000X1.300000*%
G04 #@! TD*
G04 #@! TA.AperFunction,SMDPad,CuDef*
%ADD11R,1.300000X0.250000*%
G04 #@! TD*
G04 #@! TA.AperFunction,SMDPad,CuDef*
%ADD12R,1.200000X0.900000*%
G04 #@! TD*
G04 #@! TA.AperFunction,ComponentPad*
%ADD13R,1.700000X1.700000*%
G04 #@! TD*
G04 #@! TA.AperFunction,SMDPad,CuDef*
%ADD14R,1.200000X0.750000*%
G04 #@! TD*
G04 #@! TA.AperFunction,SMDPad,CuDef*
%ADD15R,0.900000X1.200000*%
G04 #@! TD*
G04 #@! TA.AperFunction,SMDPad,CuDef*
%ADD16R,1.300000X0.400000*%
G04 #@! TD*
G04 #@! TA.AperFunction,SMDPad,CuDef*
%ADD17R,1.430000X2.850000*%
G04 #@! TD*
G04 #@! TA.AperFunction,SMDPad,CuDef*
%ADD18R,1.600000X2.000000*%
G04 #@! TD*
G04 #@! TA.AperFunction,ComponentPad*
%ADD19C,1.524000*%
G04 #@! TD*
G04 #@! TA.AperFunction,ComponentPad*
%ADD20O,1.700000X1.700000*%
G04 #@! TD*
G04 #@! TA.AperFunction,ViaPad*
%ADD21C,0.685800*%
G04 #@! TD*
G04 #@! TA.AperFunction,Conductor*
%ADD22C,0.152400*%
G04 #@! TD*
G04 #@! TA.AperFunction,Conductor*
%ADD23C,0.190500*%
G04 #@! TD*
G04 #@! TA.AperFunction,Conductor*
%ADD24C,0.254000*%
G04 #@! TD*
G04 APERTURE END LIST*
D10*
G04 #@! TO.P,U1,48*
G04 #@! TO.N,+3V3*
X130720000Y-86200000D03*
G04 #@! TO.P,U1,47*
G04 #@! TO.N,GND*
X131220000Y-86200000D03*
G04 #@! TO.P,U1,46*
G04 #@! TO.N,Net-(U1-Pad46)*
X131720000Y-86200000D03*
G04 #@! TO.P,U1,45*
G04 #@! TO.N,Net-(U1-Pad45)*
X132220000Y-86200000D03*
G04 #@! TO.P,U1,44*
G04 #@! TO.N,BOOT0*
X132720000Y-86200000D03*
G04 #@! TO.P,U1,43*
G04 #@! TO.N,Net-(U1-Pad43)*
X133220000Y-86200000D03*
G04 #@! TO.P,U1,42*
G04 #@! TO.N,Net-(U1-Pad42)*
X133720000Y-86200000D03*
G04 #@! TO.P,U1,41*
G04 #@! TO.N,Net-(U1-Pad41)*
X134220000Y-86200000D03*
G04 #@! TO.P,U1,40*
G04 #@! TO.N,Net-(U1-Pad40)*
X134720000Y-86200000D03*
G04 #@! TO.P,U1,39*
G04 #@! TO.N,Net-(U1-Pad39)*
X135220000Y-86200000D03*
G04 #@! TO.P,U1,38*
G04 #@! TO.N,Net-(U1-Pad38)*
X135720000Y-86200000D03*
G04 #@! TO.P,U1,37*
G04 #@! TO.N,SWDCLK*
X136220000Y-86200000D03*
D11*
G04 #@! TO.P,U1,36*
G04 #@! TO.N,+3V3*
X137820000Y-87800000D03*
G04 #@! TO.P,U1,35*
G04 #@! TO.N,GND*
X137820000Y-88300000D03*
G04 #@! TO.P,U1,34*
G04 #@! TO.N,SWDIO*
X137820000Y-88800000D03*
G04 #@! TO.P,U1,33*
G04 #@! TO.N,Net-(U1-Pad33)*
X137820000Y-89300000D03*
G04 #@! TO.P,U1,32*
G04 #@! TO.N,Net-(U1-Pad32)*
X137820000Y-89800000D03*
G04 #@! TO.P,U1,31*
G04 #@! TO.N,RX*
X137820000Y-90300000D03*
G04 #@! TO.P,U1,30*
G04 #@! TO.N,TX*
X137820000Y-90800000D03*
G04 #@! TO.P,U1,29*
G04 #@! TO.N,Net-(U1-Pad29)*
X137820000Y-91300000D03*
G04 #@! TO.P,U1,28*
G04 #@! TO.N,Net-(U1-Pad28)*
X137820000Y-91800000D03*
G04 #@! TO.P,U1,27*
G04 #@! TO.N,Net-(U1-Pad27)*
X137820000Y-92300000D03*
G04 #@! TO.P,U1,26*
G04 #@! TO.N,Net-(U1-Pad26)*
X137820000Y-92800000D03*
G04 #@! TO.P,U1,25*
G04 #@! TO.N,Net-(U1-Pad25)*
X137820000Y-93300000D03*
D10*
G04 #@! TO.P,U1,24*
G04 #@! TO.N,+3V3*
X136220000Y-94900000D03*
G04 #@! TO.P,U1,23*
G04 #@! TO.N,GND*
X135720000Y-94900000D03*
G04 #@! TO.P,U1,22*
G04 #@! TO.N,PB11*
X135220000Y-94900000D03*
G04 #@! TO.P,U1,21*
G04 #@! TO.N,PB10*
X134720000Y-94900000D03*
G04 #@! TO.P,U1,20*
G04 #@! TO.N,BOOT1*
X134220000Y-94900000D03*
G04 #@! TO.P,U1,19*
G04 #@! TO.N,PB1*
X133720000Y-94900000D03*
G04 #@! TO.P,U1,18*
G04 #@! TO.N,PB0*
X133220000Y-94900000D03*
G04 #@! TO.P,U1,17*
G04 #@! TO.N,MOSI*
X132720000Y-94900000D03*
G04 #@! TO.P,U1,16*
G04 #@! TO.N,MISO*
X132220000Y-94900000D03*
G04 #@! TO.P,U1,15*
G04 #@! TO.N,SCK*
X131720000Y-94900000D03*
G04 #@! TO.P,U1,14*
G04 #@! TO.N,NSS*
X131220000Y-94900000D03*
G04 #@! TO.P,U1,13*
G04 #@! TO.N,DIO0*
X130720000Y-94900000D03*
D11*
G04 #@! TO.P,U1,12*
G04 #@! TO.N,RST*
X129120000Y-93300000D03*
G04 #@! TO.P,U1,11*
G04 #@! TO.N,PA1*
X129120000Y-92800000D03*
G04 #@! TO.P,U1,10*
G04 #@! TO.N,PA0*
X129120000Y-92300000D03*
G04 #@! TO.P,U1,9*
G04 #@! TO.N,+3V3*
X129120000Y-91800000D03*
G04 #@! TO.P,U1,8*
G04 #@! TO.N,GND*
X129120000Y-91300000D03*
G04 #@! TO.P,U1,7*
G04 #@! TO.N,Net-(C1-Pad1)*
X129120000Y-90800000D03*
G04 #@! TO.P,U1,6*
G04 #@! TO.N,OSC2*
X129120000Y-90300000D03*
G04 #@! TO.P,U1,5*
G04 #@! TO.N,OSC1*
X129120000Y-89800000D03*
G04 #@! TO.P,U1,4*
G04 #@! TO.N,Net-(U1-Pad4)*
X129120000Y-89300000D03*
G04 #@! TO.P,U1,3*
G04 #@! TO.N,RTCOSC2*
X129120000Y-88800000D03*
G04 #@! TO.P,U1,2*
G04 #@! TO.N,RTCOSC1*
X129120000Y-88300000D03*
G04 #@! TO.P,U1,1*
G04 #@! TO.N,+3V3*
X129120000Y-87800000D03*
G04 #@! TD*
D12*
G04 #@! TO.P,R1,2*
G04 #@! TO.N,Net-(C1-Pad1)*
X126322000Y-95504000D03*
G04 #@! TO.P,R1,1*
G04 #@! TO.N,+3V3*
X124122000Y-95504000D03*
G04 #@! TD*
D13*
G04 #@! TO.P,J2,1*
G04 #@! TO.N,Net-(J2-Pad1)*
X142750000Y-98820000D03*
G04 #@! TD*
D14*
G04 #@! TO.P,C1,2*
G04 #@! TO.N,GND*
X124018000Y-93980000D03*
G04 #@! TO.P,C1,1*
G04 #@! TO.N,Net-(C1-Pad1)*
X125918000Y-93980000D03*
G04 #@! TD*
G04 #@! TO.P,C2,2*
G04 #@! TO.N,GND*
X135829000Y-84264500D03*
G04 #@! TO.P,C2,1*
G04 #@! TO.N,+3V3*
X137729000Y-84264500D03*
G04 #@! TD*
G04 #@! TO.P,C3,1*
G04 #@! TO.N,+3V3*
X138364000Y-96774000D03*
G04 #@! TO.P,C3,2*
G04 #@! TO.N,GND*
X136464000Y-96774000D03*
G04 #@! TD*
G04 #@! TO.P,C4,2*
G04 #@! TO.N,GND*
X131125000Y-96774000D03*
G04 #@! TO.P,C4,1*
G04 #@! TO.N,+3V3*
X129225000Y-96774000D03*
G04 #@! TD*
G04 #@! TO.P,C6,2*
G04 #@! TO.N,GND*
X131061500Y-81978500D03*
G04 #@! TO.P,C6,1*
G04 #@! TO.N,+3V3*
X129161500Y-81978500D03*
G04 #@! TD*
G04 #@! TO.P,C7,1*
G04 #@! TO.N,+3V3*
X129225000Y-84328000D03*
G04 #@! TO.P,C7,2*
G04 #@! TO.N,GND*
X131125000Y-84328000D03*
G04 #@! TD*
G04 #@! TO.P,C8,1*
G04 #@! TO.N,RTCOSC1*
X125288000Y-87376000D03*
G04 #@! TO.P,C8,2*
G04 #@! TO.N,GND*
X127188000Y-87376000D03*
G04 #@! TD*
G04 #@! TO.P,C9,2*
G04 #@! TO.N,GND*
X127188000Y-88900000D03*
G04 #@! TO.P,C9,1*
G04 #@! TO.N,RTCOSC2*
X125288000Y-88900000D03*
G04 #@! TD*
D15*
G04 #@! TO.P,R2,2*
G04 #@! TO.N,BOOT0*
X112776000Y-92370000D03*
G04 #@! TO.P,R2,1*
G04 #@! TO.N,Net-(R2-Pad1)*
X112776000Y-90170000D03*
G04 #@! TD*
G04 #@! TO.P,R3,1*
G04 #@! TO.N,Net-(R3-Pad1)*
X114554000Y-90170000D03*
G04 #@! TO.P,R3,2*
G04 #@! TO.N,BOOT1*
X114554000Y-92370000D03*
G04 #@! TD*
D16*
G04 #@! TO.P,Y1,2*
G04 #@! TO.N,GND*
X125476000Y-91440000D03*
G04 #@! TO.P,Y1,3*
G04 #@! TO.N,OSC2*
X125476000Y-92640000D03*
G04 #@! TO.P,Y1,1*
G04 #@! TO.N,OSC1*
X125476000Y-90240000D03*
G04 #@! TD*
D17*
G04 #@! TO.P,Y2,4*
G04 #@! TO.N,RTCOSC2*
X122703000Y-90213000D03*
G04 #@! TO.P,Y2,3*
G04 #@! TO.N,GND*
X117073000Y-90213000D03*
G04 #@! TO.P,Y2,2*
X117073000Y-86063000D03*
G04 #@! TO.P,Y2,1*
G04 #@! TO.N,RTCOSC1*
X122703000Y-86063000D03*
G04 #@! TD*
D18*
G04 #@! TO.P,SW1,1*
G04 #@! TO.N,GND*
X109728000Y-89756000D03*
G04 #@! TO.P,SW1,2*
G04 #@! TO.N,Net-(C1-Pad1)*
X109728000Y-95156000D03*
G04 #@! TD*
D19*
G04 #@! TO.P,SW2,3*
G04 #@! TO.N,+3V3*
X109474000Y-86360000D03*
G04 #@! TO.P,SW2,2*
G04 #@! TO.N,Net-(R2-Pad1)*
X109474000Y-83820000D03*
G04 #@! TO.P,SW2,1*
G04 #@! TO.N,GND*
X109474000Y-81280000D03*
G04 #@! TD*
G04 #@! TO.P,SW3,1*
G04 #@! TO.N,GND*
X113538000Y-81280000D03*
G04 #@! TO.P,SW3,2*
G04 #@! TO.N,Net-(R3-Pad1)*
X113538000Y-83820000D03*
G04 #@! TO.P,SW3,3*
G04 #@! TO.N,+3V3*
X113538000Y-86360000D03*
G04 #@! TD*
D20*
G04 #@! TO.P,J1,6*
G04 #@! TO.N,TX*
X142340000Y-93730000D03*
G04 #@! TO.P,J1,5*
G04 #@! TO.N,RX*
X142340000Y-91190000D03*
G04 #@! TO.P,J1,4*
G04 #@! TO.N,SWDIO*
X142340000Y-88650000D03*
G04 #@! TO.P,J1,3*
G04 #@! TO.N,SWDCLK*
X142340000Y-86110000D03*
G04 #@! TO.P,J1,2*
G04 #@! TO.N,+3V3*
X142340000Y-83570000D03*
D13*
G04 #@! TO.P,J1,1*
G04 #@! TO.N,GND*
X142340000Y-81030000D03*
G04 #@! TD*
D20*
G04 #@! TO.P,J3,6*
G04 #@! TO.N,PB11*
X121666000Y-99060000D03*
G04 #@! TO.P,J3,5*
G04 #@! TO.N,PB10*
X119126000Y-99060000D03*
G04 #@! TO.P,J3,4*
G04 #@! TO.N,PB1*
X116586000Y-99060000D03*
G04 #@! TO.P,J3,3*
G04 #@! TO.N,PB0*
X114046000Y-99060000D03*
G04 #@! TO.P,J3,2*
G04 #@! TO.N,PA1*
X111506000Y-99060000D03*
D13*
G04 #@! TO.P,J3,1*
G04 #@! TO.N,PA0*
X108966000Y-99060000D03*
G04 #@! TD*
D21*
G04 #@! TO.N,+3V3*
X137731500Y-82931000D03*
X137668000Y-95504000D03*
X129286000Y-95250000D03*
X110744000Y-87884000D03*
X123002068Y-95105652D03*
X127508000Y-94233994D03*
X128524000Y-83312000D03*
G04 #@! TO.N,SWDCLK*
X137140000Y-86100000D03*
G04 #@! TO.N,GND*
X135840000Y-87840000D03*
X134610000Y-83340000D03*
X124460000Y-85344000D03*
X132372057Y-97233245D03*
X135128000Y-96774000D03*
X126595116Y-89881053D03*
X130400000Y-90440000D03*
X120060000Y-88680000D03*
X119120000Y-85240000D03*
G04 #@! TO.N,RST*
X131112598Y-91518462D03*
G04 #@! TO.N,DIO0*
X130906797Y-92331016D03*
G04 #@! TO.N,NSS*
X130048000Y-93980000D03*
G04 #@! TO.N,SCK*
X131791626Y-93796502D03*
G04 #@! TO.N,MISO*
X132597436Y-93565703D03*
G04 #@! TO.N,MOSI*
X132085808Y-96045226D03*
G04 #@! TD*
D22*
G04 #@! TO.N,Net-(C1-Pad1)*
X126322000Y-94901600D02*
X126322000Y-95504000D01*
X126162400Y-94742000D02*
X126322000Y-94901600D01*
X125918000Y-94742000D02*
X126162400Y-94742000D01*
X125918000Y-94214600D02*
X125918000Y-94742000D01*
X116281189Y-93014811D02*
X124510811Y-93014811D01*
X124510811Y-93014811D02*
X125918000Y-94422000D01*
X115292400Y-94003600D02*
X116281189Y-93014811D01*
X110680400Y-95156000D02*
X111832800Y-94003600D01*
X125918000Y-94422000D02*
X125918000Y-94742000D01*
X109728000Y-95156000D02*
X110680400Y-95156000D01*
X111832800Y-94003600D02*
X115292400Y-94003600D01*
X128317600Y-90800000D02*
X129120000Y-90800000D01*
X126492000Y-92379066D02*
X127994865Y-90876201D01*
X128241399Y-90876201D02*
X128317600Y-90800000D01*
X125918000Y-93980000D02*
X126492000Y-93406000D01*
X127994865Y-90876201D02*
X128241399Y-90876201D01*
X126492000Y-93406000D02*
X126492000Y-92379066D01*
D23*
G04 #@! TO.N,+3V3*
X129161500Y-84264500D02*
X129225000Y-84328000D01*
X129161500Y-81978500D02*
X129161500Y-84264500D01*
X137729000Y-84516000D02*
X137729000Y-84264500D01*
X137731500Y-84262000D02*
X137729000Y-84264500D01*
X137731500Y-82931000D02*
X137731500Y-84262000D01*
X137504000Y-84264500D02*
X137729000Y-84264500D01*
X129161500Y-81978500D02*
X129386500Y-81978500D01*
X137668000Y-95504000D02*
X137064000Y-94900000D01*
X137064000Y-94900000D02*
X136220000Y-94900000D01*
X137731500Y-87711500D02*
X137820000Y-87800000D01*
X137820000Y-84921000D02*
X137820000Y-87800000D01*
X137729000Y-84264500D02*
X137729000Y-84830000D01*
X137729000Y-84830000D02*
X137820000Y-84921000D01*
X129286000Y-96713000D02*
X129225000Y-96774000D01*
X129286000Y-95250000D02*
X129286000Y-96713000D01*
X109474000Y-86614000D02*
X109474000Y-86360000D01*
X110744000Y-87884000D02*
X109474000Y-86614000D01*
X112014000Y-87884000D02*
X113538000Y-86360000D01*
X110744000Y-87884000D02*
X112014000Y-87884000D01*
X129373000Y-84328000D02*
X129225000Y-84328000D01*
X130720000Y-85675000D02*
X129373000Y-84328000D01*
X130720000Y-86200000D02*
X130720000Y-85675000D01*
X123002068Y-95174568D02*
X123002068Y-95105652D01*
X123331500Y-95504000D02*
X123002068Y-95174568D01*
X124122000Y-95504000D02*
X123331500Y-95504000D01*
X129120000Y-91800000D02*
X128279500Y-91800000D01*
X127508000Y-92571500D02*
X127508000Y-94233994D01*
X128279500Y-91800000D02*
X127508000Y-92571500D01*
X137668000Y-96078000D02*
X138364000Y-96774000D01*
X137668000Y-95504000D02*
X137668000Y-96078000D01*
X129161500Y-82674500D02*
X128866899Y-82969101D01*
X128866899Y-82969101D02*
X128524000Y-83312000D01*
X129161500Y-81978500D02*
X129161500Y-82674500D01*
X129942000Y-91800000D02*
X129120000Y-91800000D01*
X129120000Y-87800000D02*
X129960500Y-87800000D01*
X131064000Y-90678000D02*
X129942000Y-91800000D01*
X131064000Y-88903500D02*
X131064000Y-90678000D01*
X129960500Y-87800000D02*
X131064000Y-88903500D01*
D22*
G04 #@! TO.N,RTCOSC2*
X129022500Y-88897500D02*
X129120000Y-88800000D01*
X125063000Y-88900000D02*
X125288000Y-88900000D01*
X124535600Y-89427400D02*
X125063000Y-88900000D01*
X123975000Y-90213000D02*
X124535600Y-89652400D01*
X124535600Y-89652400D02*
X124535600Y-89427400D01*
X122703000Y-90213000D02*
X123975000Y-90213000D01*
X127970881Y-88296399D02*
X128474482Y-88800000D01*
X126405119Y-88296399D02*
X127970881Y-88296399D01*
X126359399Y-88342119D02*
X126405119Y-88296399D01*
X126359399Y-88800000D02*
X126359399Y-88342119D01*
X126259399Y-88900000D02*
X126359399Y-88800000D01*
X128474482Y-88800000D02*
X129120000Y-88800000D01*
X125288000Y-88900000D02*
X126259399Y-88900000D01*
G04 #@! TO.N,BOOT0*
X112776000Y-92220000D02*
X112776000Y-92370000D01*
X114960601Y-91541399D02*
X113454601Y-91541399D01*
X116332000Y-83820000D02*
X116129399Y-84022601D01*
X124460000Y-83820000D02*
X116332000Y-83820000D01*
X116129399Y-84022601D02*
X116129399Y-90372601D01*
X132720000Y-86200000D02*
X132720000Y-87002400D01*
X132605699Y-87116701D02*
X130381639Y-87116701D01*
X116129399Y-90372601D02*
X114960601Y-91541399D01*
X130381639Y-87116701D02*
X129116938Y-85852000D01*
X113454601Y-91541399D02*
X112776000Y-92220000D01*
X129116938Y-85852000D02*
X126492000Y-85852000D01*
X132720000Y-87002400D02*
X132605699Y-87116701D01*
X126492000Y-85852000D02*
X124460000Y-83820000D01*
G04 #@! TO.N,Net-(R2-Pad1)*
X110744000Y-85090000D02*
X114300000Y-85090000D01*
X109474000Y-83820000D02*
X110744000Y-85090000D01*
X115011190Y-85801190D02*
X115011190Y-87680810D01*
X114300000Y-85090000D02*
X115011190Y-85801190D01*
X114300000Y-88392000D02*
X113284000Y-88392000D01*
X115011190Y-87680810D02*
X114300000Y-88392000D01*
X112776000Y-88900000D02*
X112776000Y-90170000D01*
X113284000Y-88392000D02*
X112776000Y-88900000D01*
G04 #@! TO.N,Net-(R3-Pad1)*
X115316000Y-89258000D02*
X114554000Y-90020000D01*
X113538000Y-83820000D02*
X115316000Y-85598000D01*
X114554000Y-90020000D02*
X114554000Y-90170000D01*
X115316000Y-85598000D02*
X115316000Y-89258000D01*
G04 #@! TO.N,BOOT1*
X114554000Y-92370000D02*
X117467482Y-92370000D01*
X126727332Y-86772399D02*
X129606271Y-86772399D01*
X117467482Y-92370000D02*
X118381329Y-91456153D01*
X124364333Y-84409399D02*
X126727332Y-86772399D01*
X134220000Y-94097600D02*
X134220000Y-94900000D01*
X118381329Y-91456153D02*
X118381329Y-87833189D01*
X134220000Y-90963067D02*
X134220000Y-94097600D01*
X130683744Y-87426811D02*
X134220000Y-90963067D01*
X118381329Y-87833189D02*
X121805119Y-84409399D01*
X129606271Y-86772399D02*
X130260683Y-87426811D01*
X121805119Y-84409399D02*
X124364333Y-84409399D01*
X130260683Y-87426811D02*
X130683744Y-87426811D01*
G04 #@! TO.N,OSC2*
X127254000Y-91186000D02*
X128140000Y-90300000D01*
X126991482Y-91186000D02*
X127254000Y-91186000D01*
X125730000Y-92640000D02*
X125730000Y-92447482D01*
X128140000Y-90300000D02*
X129120000Y-90300000D01*
X125730000Y-92447482D02*
X126991482Y-91186000D01*
G04 #@! TO.N,OSC1*
X125730000Y-90240000D02*
X125038000Y-90240000D01*
X125038000Y-90240000D02*
X124968000Y-90170000D01*
X127254000Y-90678000D02*
X125561600Y-90678000D01*
X125561600Y-90678000D02*
X125476000Y-90592400D01*
X128132000Y-89800000D02*
X127254000Y-90678000D01*
X125476000Y-90592400D02*
X125476000Y-90240000D01*
X129120000Y-89800000D02*
X128132000Y-89800000D01*
G04 #@! TO.N,RTCOSC1*
X122755000Y-85570500D02*
X122755000Y-85065000D01*
X125288000Y-86848600D02*
X125288000Y-87376000D01*
X124502400Y-86063000D02*
X125288000Y-86848600D01*
X122703000Y-86063000D02*
X124502400Y-86063000D01*
X125513000Y-87376000D02*
X126128588Y-87991588D01*
X128405548Y-88300000D02*
X129120000Y-88300000D01*
X126128588Y-87991588D02*
X128097137Y-87991588D01*
X128097137Y-87991588D02*
X128405548Y-88300000D01*
X125288000Y-87376000D02*
X125513000Y-87376000D01*
G04 #@! TO.N,SWDIO*
X140987919Y-88800000D02*
X137820000Y-88800000D01*
X141137919Y-88650000D02*
X140987919Y-88800000D01*
X142340000Y-88650000D02*
X141137919Y-88650000D01*
G04 #@! TO.N,SWDCLK*
X136320000Y-86100000D02*
X136220000Y-86200000D01*
X137140000Y-86100000D02*
X136320000Y-86100000D01*
G04 #@! TO.N,GND*
X131246000Y-84449000D02*
X131125000Y-84328000D01*
X131125000Y-96774000D02*
X130900000Y-96774000D01*
X134070400Y-81978500D02*
X135829000Y-83737100D01*
X135829000Y-83737100D02*
X135829000Y-84264500D01*
X131061500Y-81978500D02*
X134070400Y-81978500D01*
X131061500Y-84264500D02*
X131125000Y-84328000D01*
X131061500Y-81978500D02*
X131061500Y-84264500D01*
X131220000Y-84423000D02*
X131125000Y-84328000D01*
X131220000Y-86200000D02*
X131220000Y-84423000D01*
X125718400Y-91330000D02*
X125208660Y-91330000D01*
X125857000Y-91468600D02*
X125718400Y-91330000D01*
X137820000Y-88300000D02*
X136300000Y-88300000D01*
X136300000Y-88300000D02*
X135840000Y-87840000D01*
X135534500Y-84264500D02*
X135829000Y-84264500D01*
X134610000Y-83340000D02*
X135534500Y-84264500D01*
X135720000Y-95724347D02*
X135720000Y-94900000D01*
X136398000Y-96774000D02*
X136398000Y-96402347D01*
X136398000Y-96402347D02*
X135720000Y-95724347D01*
X117073000Y-90213000D02*
X117073000Y-86063000D01*
X127188000Y-87376000D02*
X126674482Y-87376000D01*
X124642482Y-85344000D02*
X124460000Y-85344000D01*
X126674482Y-87376000D02*
X124642482Y-85344000D01*
X109728000Y-90908400D02*
X109728000Y-89756000D01*
X131912812Y-96774000D02*
X132372057Y-97233245D01*
X131125000Y-96774000D02*
X131912812Y-96774000D01*
X136464000Y-96774000D02*
X135128000Y-96774000D01*
X127188000Y-88900000D02*
X127188000Y-89427400D01*
X126734347Y-89881053D02*
X126595116Y-89881053D01*
X127188000Y-89427400D02*
X126734347Y-89881053D01*
X108204000Y-96520000D02*
X108204000Y-92432400D01*
X123265600Y-93980000D02*
X122503600Y-94742000D01*
X122503600Y-94742000D02*
X113284000Y-94742000D01*
X108204000Y-92432400D02*
X109728000Y-90908400D01*
X113284000Y-94742000D02*
X110998000Y-97028000D01*
X124018000Y-93980000D02*
X123265600Y-93980000D01*
X110998000Y-97028000D02*
X108712000Y-97028000D01*
X108712000Y-97028000D02*
X108204000Y-96520000D01*
X130400000Y-90822400D02*
X130400000Y-90440000D01*
X129922400Y-91300000D02*
X130400000Y-90822400D01*
X129120000Y-91300000D02*
X129922400Y-91300000D01*
G04 #@! TO.N,RST*
X130270000Y-92952400D02*
X130270000Y-91983890D01*
X129922400Y-93300000D02*
X130270000Y-92952400D01*
X129120000Y-93300000D02*
X129922400Y-93300000D01*
X130735428Y-91518462D02*
X131112598Y-91518462D01*
X130270000Y-91983890D02*
X130735428Y-91518462D01*
G04 #@! TO.N,DIO0*
X130720000Y-94900000D02*
X130720000Y-92517813D01*
X130720000Y-92517813D02*
X130906797Y-92331016D01*
G04 #@! TO.N,NSS*
X130667966Y-96100899D02*
X130149601Y-95582534D01*
X130821501Y-96100899D02*
X130667966Y-96100899D01*
X131220000Y-94900000D02*
X131220000Y-95702400D01*
X131220000Y-95702400D02*
X130821501Y-96100899D01*
X130149601Y-94566534D02*
X130048000Y-94464933D01*
X130149601Y-95582534D02*
X130149601Y-94566534D01*
X130048000Y-94464933D02*
X130048000Y-93980000D01*
G04 #@! TO.N,SCK*
X131720000Y-94900000D02*
X131720000Y-93868128D01*
X131720000Y-93868128D02*
X131791626Y-93796502D01*
G04 #@! TO.N,MISO*
X132220000Y-94900000D02*
X132363127Y-94756873D01*
X132363127Y-94756873D02*
X132363127Y-93800012D01*
X132363127Y-93800012D02*
X132597436Y-93565703D01*
G04 #@! TO.N,MOSI*
X132377174Y-96045226D02*
X132085808Y-96045226D01*
X132720000Y-95702400D02*
X132377174Y-96045226D01*
X132720000Y-94900000D02*
X132720000Y-95702400D01*
G04 #@! TO.N,TX*
X139410000Y-90800000D02*
X137820000Y-90800000D01*
X142340000Y-93730000D02*
X139410000Y-90800000D01*
G04 #@! TO.N,RX*
X141450000Y-90300000D02*
X137820000Y-90300000D01*
X142340000Y-91190000D02*
X141450000Y-90300000D01*
G04 #@! TO.N,PB11*
X121920000Y-99060000D02*
X121666000Y-99314000D01*
X122515999Y-99909999D02*
X121666000Y-99060000D01*
X122682000Y-100076000D02*
X122515999Y-99909999D01*
X133654811Y-100076000D02*
X122682000Y-100076000D01*
X133858000Y-97017417D02*
X133858000Y-99872811D01*
X135220001Y-95655416D02*
X133858000Y-97017417D01*
X133858000Y-99872811D02*
X133654811Y-100076000D01*
X135220000Y-94900000D02*
X135220001Y-95655416D01*
G04 #@! TO.N,PB10*
X133553189Y-96891161D02*
X133553189Y-99618811D01*
X120700809Y-97485191D02*
X119975999Y-98210001D01*
X134720000Y-95724350D02*
X133553189Y-96891161D01*
X126949191Y-97485191D02*
X120700809Y-97485191D01*
X133553189Y-99618811D02*
X133400811Y-99771189D01*
X119975999Y-98210001D02*
X119126000Y-99060000D01*
X129235189Y-99771189D02*
X126949191Y-97485191D01*
X134720000Y-94900000D02*
X134720000Y-95724350D01*
X133400811Y-99771189D02*
X129235189Y-99771189D01*
G04 #@! TO.N,PB1*
X133720000Y-96293284D02*
X133248378Y-96764905D01*
X129438378Y-99466378D02*
X127107134Y-97135134D01*
X118510866Y-97135134D02*
X117435999Y-98210001D01*
X133248378Y-96764905D02*
X133248378Y-99312512D01*
X133248378Y-99312512D02*
X133094512Y-99466378D01*
X127107134Y-97135134D02*
X118510866Y-97135134D01*
X133094512Y-99466378D02*
X129438378Y-99466378D01*
X117435999Y-98210001D02*
X116586000Y-99060000D01*
X133720000Y-94900000D02*
X133720000Y-96293284D01*
G04 #@! TO.N,PB0*
X116275677Y-96830323D02*
X114895999Y-98210001D01*
X127310323Y-96830323D02*
X116275677Y-96830323D01*
X133220000Y-94900000D02*
X133220000Y-96362216D01*
X133220000Y-96362216D02*
X132943567Y-96638649D01*
X129540000Y-99060000D02*
X127310323Y-96830323D01*
X132943567Y-96638649D02*
X132943567Y-98958433D01*
X114895999Y-98210001D02*
X114046000Y-99060000D01*
X132943567Y-98958433D02*
X132842000Y-99060000D01*
X132842000Y-99060000D02*
X129540000Y-99060000D01*
G04 #@! TO.N,PA1*
X128422412Y-96124277D02*
X128021177Y-96525512D01*
X128021177Y-96525512D02*
X114040488Y-96525512D01*
X112355999Y-98210001D02*
X111506000Y-99060000D01*
X129120000Y-92800000D02*
X128317600Y-92800000D01*
X128317600Y-92800000D02*
X128241399Y-92876201D01*
X128676412Y-94042894D02*
X128676412Y-94906865D01*
X128241399Y-93607881D02*
X128676412Y-94042894D01*
X114040488Y-96525512D02*
X112355999Y-98210001D01*
X128676412Y-94906865D02*
X128422412Y-95160864D01*
X128422412Y-95160864D02*
X128422412Y-96124277D01*
X128241399Y-92876201D02*
X128241399Y-93607881D01*
G04 #@! TO.N,PA0*
X128117601Y-95034609D02*
X128117601Y-95998021D01*
X128117601Y-95998021D02*
X127894921Y-96220701D01*
X129120000Y-92300000D02*
X128317600Y-92300000D01*
X128317600Y-92300000D02*
X127936588Y-92681012D01*
X127936588Y-93760378D02*
X128371601Y-94195391D01*
X127936588Y-92681012D02*
X127936588Y-93760378D01*
X128371601Y-94195391D02*
X128371601Y-94780609D01*
X128371601Y-94780609D02*
X128117601Y-95034609D01*
X109968400Y-99060000D02*
X108966000Y-99060000D01*
X127894921Y-96220701D02*
X112807699Y-96220701D01*
X112807699Y-96220701D02*
X109968400Y-99060000D01*
G04 #@! TD*
D24*
G04 #@! TO.N,GND*
G36*
X144070001Y-79449248D02*
X144070000Y-97530436D01*
X144057809Y-97512191D01*
X143847765Y-97371843D01*
X143600000Y-97322560D01*
X141900000Y-97322560D01*
X141652235Y-97371843D01*
X141442191Y-97512191D01*
X141301843Y-97722235D01*
X141252560Y-97970000D01*
X141252560Y-99670000D01*
X141301843Y-99917765D01*
X141442191Y-100127809D01*
X141463749Y-100142214D01*
X134513430Y-100172017D01*
X134527936Y-100150307D01*
X134569200Y-99942857D01*
X134569200Y-99942852D01*
X134583132Y-99872811D01*
X134569200Y-99802769D01*
X134569200Y-97312005D01*
X134821455Y-97059750D01*
X135229000Y-97059750D01*
X135229000Y-97275310D01*
X135325673Y-97508699D01*
X135504302Y-97687327D01*
X135737691Y-97784000D01*
X136178250Y-97784000D01*
X136337000Y-97625250D01*
X136337000Y-96901000D01*
X135387750Y-96901000D01*
X135229000Y-97059750D01*
X134821455Y-97059750D01*
X135310978Y-96570228D01*
X135387750Y-96647000D01*
X136337000Y-96647000D01*
X136337000Y-96627000D01*
X136591000Y-96627000D01*
X136591000Y-96647000D01*
X136611000Y-96647000D01*
X136611000Y-96901000D01*
X136591000Y-96901000D01*
X136591000Y-97625250D01*
X136749750Y-97784000D01*
X137190309Y-97784000D01*
X137423698Y-97687327D01*
X137424898Y-97686127D01*
X137516235Y-97747157D01*
X137764000Y-97796440D01*
X138964000Y-97796440D01*
X139211765Y-97747157D01*
X139421809Y-97606809D01*
X139562157Y-97396765D01*
X139611440Y-97149000D01*
X139611440Y-96399000D01*
X139562157Y-96151235D01*
X139421809Y-95941191D01*
X139211765Y-95800843D01*
X138964000Y-95751560D01*
X138623928Y-95751560D01*
X138645900Y-95698516D01*
X138645900Y-95309484D01*
X138497023Y-94950064D01*
X138221936Y-94674977D01*
X137862516Y-94526100D01*
X137722828Y-94526100D01*
X137631225Y-94434496D01*
X137590481Y-94373519D01*
X137348929Y-94212120D01*
X137135921Y-94169750D01*
X137135920Y-94169750D01*
X137064000Y-94155444D01*
X136992080Y-94169750D01*
X136976477Y-94169750D01*
X136948352Y-94028352D01*
X137170000Y-94072440D01*
X138470000Y-94072440D01*
X138717765Y-94023157D01*
X138927809Y-93882809D01*
X139068157Y-93672765D01*
X139117440Y-93425000D01*
X139117440Y-93175000D01*
X139092576Y-93050000D01*
X139117440Y-92925000D01*
X139117440Y-92675000D01*
X139092576Y-92550000D01*
X139117440Y-92425000D01*
X139117440Y-92175000D01*
X139092576Y-92050000D01*
X139117440Y-91925000D01*
X139117440Y-91675000D01*
X139092576Y-91550000D01*
X139100294Y-91511200D01*
X139115412Y-91511200D01*
X140910241Y-93306029D01*
X140825908Y-93730000D01*
X140941161Y-94309418D01*
X141269375Y-94800625D01*
X141760582Y-95128839D01*
X142193744Y-95215000D01*
X142486256Y-95215000D01*
X142919418Y-95128839D01*
X143410625Y-94800625D01*
X143738839Y-94309418D01*
X143854092Y-93730000D01*
X143738839Y-93150582D01*
X143410625Y-92659375D01*
X143112239Y-92460000D01*
X143410625Y-92260625D01*
X143738839Y-91769418D01*
X143854092Y-91190000D01*
X143738839Y-90610582D01*
X143410625Y-90119375D01*
X143112239Y-89920000D01*
X143410625Y-89720625D01*
X143738839Y-89229418D01*
X143854092Y-88650000D01*
X143738839Y-88070582D01*
X143410625Y-87579375D01*
X143112239Y-87380000D01*
X143410625Y-87180625D01*
X143738839Y-86689418D01*
X143854092Y-86110000D01*
X143738839Y-85530582D01*
X143410625Y-85039375D01*
X143112239Y-84840000D01*
X143410625Y-84640625D01*
X143738839Y-84149418D01*
X143854092Y-83570000D01*
X143738839Y-82990582D01*
X143410625Y-82499375D01*
X143388967Y-82484904D01*
X143549698Y-82418327D01*
X143728327Y-82239699D01*
X143825000Y-82006310D01*
X143825000Y-81315750D01*
X143666250Y-81157000D01*
X142467000Y-81157000D01*
X142467000Y-81177000D01*
X142213000Y-81177000D01*
X142213000Y-81157000D01*
X141013750Y-81157000D01*
X140855000Y-81315750D01*
X140855000Y-82006310D01*
X140951673Y-82239699D01*
X141130302Y-82418327D01*
X141291033Y-82484904D01*
X141269375Y-82499375D01*
X140941161Y-82990582D01*
X140825908Y-83570000D01*
X140941161Y-84149418D01*
X141269375Y-84640625D01*
X141567761Y-84840000D01*
X141269375Y-85039375D01*
X140941161Y-85530582D01*
X140825908Y-86110000D01*
X140941161Y-86689418D01*
X141269375Y-87180625D01*
X141567761Y-87380000D01*
X141269375Y-87579375D01*
X141023289Y-87947668D01*
X140860423Y-87980064D01*
X140697689Y-88088800D01*
X139094950Y-88088800D01*
X139105000Y-88078750D01*
X139105000Y-88048690D01*
X139096783Y-88028852D01*
X139117440Y-87925000D01*
X139117440Y-87675000D01*
X139068157Y-87427235D01*
X138927809Y-87217191D01*
X138717765Y-87076843D01*
X138550250Y-87043523D01*
X138550250Y-85242931D01*
X138576765Y-85237657D01*
X138786809Y-85097309D01*
X138927157Y-84887265D01*
X138976440Y-84639500D01*
X138976440Y-83889500D01*
X138927157Y-83641735D01*
X138786809Y-83431691D01*
X138626850Y-83324809D01*
X138709400Y-83125516D01*
X138709400Y-82736484D01*
X138560523Y-82377064D01*
X138285436Y-82101977D01*
X137926016Y-81953100D01*
X137536984Y-81953100D01*
X137177564Y-82101977D01*
X136902477Y-82377064D01*
X136753600Y-82736484D01*
X136753600Y-83125516D01*
X136835066Y-83322192D01*
X136789898Y-83352373D01*
X136788698Y-83351173D01*
X136555309Y-83254500D01*
X136114750Y-83254500D01*
X135956000Y-83413250D01*
X135956000Y-84137500D01*
X135976000Y-84137500D01*
X135976000Y-84391500D01*
X135956000Y-84391500D01*
X135956000Y-84411500D01*
X135702000Y-84411500D01*
X135702000Y-84391500D01*
X134752750Y-84391500D01*
X134594000Y-84550250D01*
X134594000Y-84765810D01*
X134650644Y-84902560D01*
X134595000Y-84902560D01*
X134470000Y-84927424D01*
X134345000Y-84902560D01*
X134095000Y-84902560D01*
X133970000Y-84927424D01*
X133845000Y-84902560D01*
X133595000Y-84902560D01*
X133470000Y-84927424D01*
X133345000Y-84902560D01*
X133095000Y-84902560D01*
X132970000Y-84927424D01*
X132845000Y-84902560D01*
X132595000Y-84902560D01*
X132470000Y-84927424D01*
X132345000Y-84902560D01*
X132329659Y-84902560D01*
X132360000Y-84829310D01*
X132360000Y-84613750D01*
X132201250Y-84455000D01*
X131252000Y-84455000D01*
X131252000Y-84475000D01*
X130998000Y-84475000D01*
X130998000Y-84455000D01*
X130978000Y-84455000D01*
X130978000Y-84201000D01*
X130998000Y-84201000D01*
X130998000Y-83476750D01*
X131252000Y-83476750D01*
X131252000Y-84201000D01*
X132201250Y-84201000D01*
X132360000Y-84042250D01*
X132360000Y-83826690D01*
X132333698Y-83763190D01*
X134594000Y-83763190D01*
X134594000Y-83978750D01*
X134752750Y-84137500D01*
X135702000Y-84137500D01*
X135702000Y-83413250D01*
X135543250Y-83254500D01*
X135102691Y-83254500D01*
X134869302Y-83351173D01*
X134690673Y-83529801D01*
X134594000Y-83763190D01*
X132333698Y-83763190D01*
X132263327Y-83593301D01*
X132084698Y-83414673D01*
X131851309Y-83318000D01*
X131410750Y-83318000D01*
X131252000Y-83476750D01*
X130998000Y-83476750D01*
X130839250Y-83318000D01*
X130398691Y-83318000D01*
X130165302Y-83414673D01*
X130164102Y-83415873D01*
X130072765Y-83354843D01*
X129891750Y-83318837D01*
X129891750Y-82975032D01*
X130009265Y-82951657D01*
X130100602Y-82890627D01*
X130101802Y-82891827D01*
X130335191Y-82988500D01*
X130775750Y-82988500D01*
X130934500Y-82829750D01*
X130934500Y-82105500D01*
X131188500Y-82105500D01*
X131188500Y-82829750D01*
X131347250Y-82988500D01*
X131787809Y-82988500D01*
X132021198Y-82891827D01*
X132199827Y-82713199D01*
X132296500Y-82479810D01*
X132296500Y-82264250D01*
X132137750Y-82105500D01*
X131188500Y-82105500D01*
X130934500Y-82105500D01*
X130914500Y-82105500D01*
X130914500Y-81851500D01*
X130934500Y-81851500D01*
X130934500Y-81127250D01*
X131188500Y-81127250D01*
X131188500Y-81851500D01*
X132137750Y-81851500D01*
X132296500Y-81692750D01*
X132296500Y-81477190D01*
X132199827Y-81243801D01*
X132021198Y-81065173D01*
X131787809Y-80968500D01*
X131347250Y-80968500D01*
X131188500Y-81127250D01*
X130934500Y-81127250D01*
X130775750Y-80968500D01*
X130335191Y-80968500D01*
X130101802Y-81065173D01*
X130100602Y-81066373D01*
X130009265Y-81005343D01*
X129761500Y-80956060D01*
X128561500Y-80956060D01*
X128313735Y-81005343D01*
X128103691Y-81145691D01*
X127963343Y-81355735D01*
X127914060Y-81603500D01*
X127914060Y-82353500D01*
X127944833Y-82508208D01*
X127694977Y-82758064D01*
X127546100Y-83117484D01*
X127546100Y-83506516D01*
X127694977Y-83865936D01*
X127970064Y-84141023D01*
X127977560Y-84144128D01*
X127977560Y-84703000D01*
X128026843Y-84950765D01*
X128153821Y-85140800D01*
X126786589Y-85140800D01*
X125012424Y-83366636D01*
X124972746Y-83307254D01*
X124737496Y-83150064D01*
X124530046Y-83108800D01*
X124530041Y-83108800D01*
X124460000Y-83094868D01*
X124389959Y-83108800D01*
X116402041Y-83108800D01*
X116331999Y-83094868D01*
X116261958Y-83108800D01*
X116261954Y-83108800D01*
X116054504Y-83150064D01*
X115819254Y-83307254D01*
X115779576Y-83366636D01*
X115676033Y-83470179D01*
X115616653Y-83509856D01*
X115576977Y-83569235D01*
X115576975Y-83569237D01*
X115518347Y-83656980D01*
X115459463Y-83745106D01*
X115418199Y-83952556D01*
X115418199Y-83952560D01*
X115404267Y-84022601D01*
X115418199Y-84092642D01*
X115418199Y-84694410D01*
X114901806Y-84178018D01*
X114935000Y-84097881D01*
X114935000Y-83542119D01*
X114722320Y-83028663D01*
X114329337Y-82635680D01*
X114138353Y-82556572D01*
X114269143Y-82502397D01*
X114338608Y-82260213D01*
X113538000Y-81459605D01*
X112737392Y-82260213D01*
X112806857Y-82502397D01*
X112947393Y-82552535D01*
X112746663Y-82635680D01*
X112353680Y-83028663D01*
X112141000Y-83542119D01*
X112141000Y-84097881D01*
X112257360Y-84378800D01*
X111038589Y-84378800D01*
X110837806Y-84178018D01*
X110871000Y-84097881D01*
X110871000Y-83542119D01*
X110658320Y-83028663D01*
X110265337Y-82635680D01*
X110074353Y-82556572D01*
X110205143Y-82502397D01*
X110274608Y-82260213D01*
X109474000Y-81459605D01*
X108673392Y-82260213D01*
X108742857Y-82502397D01*
X108883393Y-82552535D01*
X108682663Y-82635680D01*
X108289680Y-83028663D01*
X108077000Y-83542119D01*
X108077000Y-84097881D01*
X108289680Y-84611337D01*
X108682663Y-85004320D01*
X108889513Y-85090000D01*
X108682663Y-85175680D01*
X108289680Y-85568663D01*
X108077000Y-86082119D01*
X108077000Y-86637881D01*
X108289680Y-87151337D01*
X108682663Y-87544320D01*
X109196119Y-87757000D01*
X109584271Y-87757000D01*
X109766100Y-87938829D01*
X109766100Y-88078516D01*
X109855000Y-88293139D01*
X109855000Y-89629000D01*
X111004250Y-89629000D01*
X111163000Y-89470250D01*
X111163000Y-88768915D01*
X111297936Y-88713023D01*
X111396709Y-88614250D01*
X111942080Y-88614250D01*
X112014000Y-88628556D01*
X112085920Y-88614250D01*
X112085921Y-88614250D01*
X112115513Y-88608364D01*
X112106064Y-88622505D01*
X112064800Y-88829955D01*
X112064800Y-88829959D01*
X112050868Y-88900000D01*
X112064800Y-88970042D01*
X112064800Y-88980820D01*
X111868191Y-89112191D01*
X111727843Y-89322235D01*
X111678560Y-89570000D01*
X111678560Y-90770000D01*
X111727843Y-91017765D01*
X111868191Y-91227809D01*
X111931334Y-91270000D01*
X111868191Y-91312191D01*
X111727843Y-91522235D01*
X111678560Y-91770000D01*
X111678560Y-92970000D01*
X111727843Y-93217765D01*
X111775958Y-93289774D01*
X111762758Y-93292400D01*
X111762754Y-93292400D01*
X111555304Y-93333664D01*
X111522801Y-93355382D01*
X111379435Y-93451176D01*
X111379433Y-93451178D01*
X111320054Y-93490854D01*
X111280378Y-93550233D01*
X111044534Y-93786078D01*
X110985809Y-93698191D01*
X110775765Y-93557843D01*
X110528000Y-93508560D01*
X108928000Y-93508560D01*
X108680235Y-93557843D01*
X108470191Y-93698191D01*
X108329843Y-93908235D01*
X108280560Y-94156000D01*
X108280560Y-96156000D01*
X108329843Y-96403765D01*
X108470191Y-96613809D01*
X108680235Y-96754157D01*
X108928000Y-96803440D01*
X110528000Y-96803440D01*
X110775765Y-96754157D01*
X110985809Y-96613809D01*
X111126157Y-96403765D01*
X111175440Y-96156000D01*
X111175440Y-95680577D01*
X111193146Y-95668746D01*
X111232824Y-95609364D01*
X112127389Y-94714800D01*
X115222359Y-94714800D01*
X115292400Y-94728732D01*
X115362441Y-94714800D01*
X115362446Y-94714800D01*
X115569896Y-94673536D01*
X115805146Y-94516346D01*
X115844824Y-94456964D01*
X116575778Y-93726011D01*
X122814761Y-93726011D01*
X122941750Y-93853000D01*
X123891000Y-93853000D01*
X123891000Y-93833000D01*
X124145000Y-93833000D01*
X124145000Y-93853000D01*
X124165000Y-93853000D01*
X124165000Y-94107000D01*
X124145000Y-94107000D01*
X124145000Y-94127000D01*
X123891000Y-94127000D01*
X123891000Y-94107000D01*
X122941750Y-94107000D01*
X122920998Y-94127752D01*
X122807552Y-94127752D01*
X122448132Y-94276629D01*
X122173045Y-94551716D01*
X122024168Y-94911136D01*
X122024168Y-95300168D01*
X122110877Y-95509501D01*
X112877740Y-95509501D01*
X112807698Y-95495569D01*
X112737656Y-95509501D01*
X112737653Y-95509501D01*
X112530203Y-95550765D01*
X112530202Y-95550766D01*
X112530201Y-95550766D01*
X112354334Y-95668277D01*
X112354332Y-95668279D01*
X112294953Y-95707955D01*
X112255277Y-95767334D01*
X110271778Y-97750834D01*
X110063765Y-97611843D01*
X109816000Y-97562560D01*
X108116000Y-97562560D01*
X107868235Y-97611843D01*
X107710000Y-97717573D01*
X107710000Y-90041750D01*
X108293000Y-90041750D01*
X108293000Y-90882309D01*
X108389673Y-91115698D01*
X108568301Y-91294327D01*
X108801690Y-91391000D01*
X109442250Y-91391000D01*
X109601000Y-91232250D01*
X109601000Y-89883000D01*
X109855000Y-89883000D01*
X109855000Y-91232250D01*
X110013750Y-91391000D01*
X110654310Y-91391000D01*
X110887699Y-91294327D01*
X111066327Y-91115698D01*
X111163000Y-90882309D01*
X111163000Y-90041750D01*
X111004250Y-89883000D01*
X109855000Y-89883000D01*
X109601000Y-89883000D01*
X108451750Y-89883000D01*
X108293000Y-90041750D01*
X107710000Y-90041750D01*
X107710000Y-88629691D01*
X108293000Y-88629691D01*
X108293000Y-89470250D01*
X108451750Y-89629000D01*
X109601000Y-89629000D01*
X109601000Y-88279750D01*
X109442250Y-88121000D01*
X108801690Y-88121000D01*
X108568301Y-88217673D01*
X108389673Y-88396302D01*
X108293000Y-88629691D01*
X107710000Y-88629691D01*
X107710000Y-81072302D01*
X108064856Y-81072302D01*
X108092638Y-81627368D01*
X108251603Y-82011143D01*
X108493787Y-82080608D01*
X109294395Y-81280000D01*
X109653605Y-81280000D01*
X110454213Y-82080608D01*
X110696397Y-82011143D01*
X110883144Y-81487698D01*
X110862353Y-81072302D01*
X112128856Y-81072302D01*
X112156638Y-81627368D01*
X112315603Y-82011143D01*
X112557787Y-82080608D01*
X113358395Y-81280000D01*
X113717605Y-81280000D01*
X114518213Y-82080608D01*
X114760397Y-82011143D01*
X114947144Y-81487698D01*
X114919362Y-80932632D01*
X114760397Y-80548857D01*
X114518213Y-80479392D01*
X113717605Y-81280000D01*
X113358395Y-81280000D01*
X112557787Y-80479392D01*
X112315603Y-80548857D01*
X112128856Y-81072302D01*
X110862353Y-81072302D01*
X110855362Y-80932632D01*
X110696397Y-80548857D01*
X110454213Y-80479392D01*
X109653605Y-81280000D01*
X109294395Y-81280000D01*
X108493787Y-80479392D01*
X108251603Y-80548857D01*
X108064856Y-81072302D01*
X107710000Y-81072302D01*
X107710000Y-80299787D01*
X108673392Y-80299787D01*
X109474000Y-81100395D01*
X110274608Y-80299787D01*
X112737392Y-80299787D01*
X113538000Y-81100395D01*
X114338608Y-80299787D01*
X114269143Y-80057603D01*
X114258176Y-80053690D01*
X140855000Y-80053690D01*
X140855000Y-80744250D01*
X141013750Y-80903000D01*
X142213000Y-80903000D01*
X142213000Y-79703750D01*
X142467000Y-79703750D01*
X142467000Y-80903000D01*
X143666250Y-80903000D01*
X143825000Y-80744250D01*
X143825000Y-80053690D01*
X143728327Y-79820301D01*
X143549698Y-79641673D01*
X143316309Y-79545000D01*
X142625750Y-79545000D01*
X142467000Y-79703750D01*
X142213000Y-79703750D01*
X142054250Y-79545000D01*
X141363691Y-79545000D01*
X141130302Y-79641673D01*
X140951673Y-79820301D01*
X140855000Y-80053690D01*
X114258176Y-80053690D01*
X113745698Y-79870856D01*
X113190632Y-79898638D01*
X112806857Y-80057603D01*
X112737392Y-80299787D01*
X110274608Y-80299787D01*
X110205143Y-80057603D01*
X109681698Y-79870856D01*
X109126632Y-79898638D01*
X108742857Y-80057603D01*
X108673392Y-80299787D01*
X107710000Y-80299787D01*
X107710000Y-79410752D01*
X144070001Y-79449248D01*
X144070001Y-79449248D01*
G37*
X144070001Y-79449248D02*
X144070000Y-97530436D01*
X144057809Y-97512191D01*
X143847765Y-97371843D01*
X143600000Y-97322560D01*
X141900000Y-97322560D01*
X141652235Y-97371843D01*
X141442191Y-97512191D01*
X141301843Y-97722235D01*
X141252560Y-97970000D01*
X141252560Y-99670000D01*
X141301843Y-99917765D01*
X141442191Y-100127809D01*
X141463749Y-100142214D01*
X134513430Y-100172017D01*
X134527936Y-100150307D01*
X134569200Y-99942857D01*
X134569200Y-99942852D01*
X134583132Y-99872811D01*
X134569200Y-99802769D01*
X134569200Y-97312005D01*
X134821455Y-97059750D01*
X135229000Y-97059750D01*
X135229000Y-97275310D01*
X135325673Y-97508699D01*
X135504302Y-97687327D01*
X135737691Y-97784000D01*
X136178250Y-97784000D01*
X136337000Y-97625250D01*
X136337000Y-96901000D01*
X135387750Y-96901000D01*
X135229000Y-97059750D01*
X134821455Y-97059750D01*
X135310978Y-96570228D01*
X135387750Y-96647000D01*
X136337000Y-96647000D01*
X136337000Y-96627000D01*
X136591000Y-96627000D01*
X136591000Y-96647000D01*
X136611000Y-96647000D01*
X136611000Y-96901000D01*
X136591000Y-96901000D01*
X136591000Y-97625250D01*
X136749750Y-97784000D01*
X137190309Y-97784000D01*
X137423698Y-97687327D01*
X137424898Y-97686127D01*
X137516235Y-97747157D01*
X137764000Y-97796440D01*
X138964000Y-97796440D01*
X139211765Y-97747157D01*
X139421809Y-97606809D01*
X139562157Y-97396765D01*
X139611440Y-97149000D01*
X139611440Y-96399000D01*
X139562157Y-96151235D01*
X139421809Y-95941191D01*
X139211765Y-95800843D01*
X138964000Y-95751560D01*
X138623928Y-95751560D01*
X138645900Y-95698516D01*
X138645900Y-95309484D01*
X138497023Y-94950064D01*
X138221936Y-94674977D01*
X137862516Y-94526100D01*
X137722828Y-94526100D01*
X137631225Y-94434496D01*
X137590481Y-94373519D01*
X137348929Y-94212120D01*
X137135921Y-94169750D01*
X137135920Y-94169750D01*
X137064000Y-94155444D01*
X136992080Y-94169750D01*
X136976477Y-94169750D01*
X136948352Y-94028352D01*
X137170000Y-94072440D01*
X138470000Y-94072440D01*
X138717765Y-94023157D01*
X138927809Y-93882809D01*
X139068157Y-93672765D01*
X139117440Y-93425000D01*
X139117440Y-93175000D01*
X139092576Y-93050000D01*
X139117440Y-92925000D01*
X139117440Y-92675000D01*
X139092576Y-92550000D01*
X139117440Y-92425000D01*
X139117440Y-92175000D01*
X139092576Y-92050000D01*
X139117440Y-91925000D01*
X139117440Y-91675000D01*
X139092576Y-91550000D01*
X139100294Y-91511200D01*
X139115412Y-91511200D01*
X140910241Y-93306029D01*
X140825908Y-93730000D01*
X140941161Y-94309418D01*
X141269375Y-94800625D01*
X141760582Y-95128839D01*
X142193744Y-95215000D01*
X142486256Y-95215000D01*
X142919418Y-95128839D01*
X143410625Y-94800625D01*
X143738839Y-94309418D01*
X143854092Y-93730000D01*
X143738839Y-93150582D01*
X143410625Y-92659375D01*
X143112239Y-92460000D01*
X143410625Y-92260625D01*
X143738839Y-91769418D01*
X143854092Y-91190000D01*
X143738839Y-90610582D01*
X143410625Y-90119375D01*
X143112239Y-89920000D01*
X143410625Y-89720625D01*
X143738839Y-89229418D01*
X143854092Y-88650000D01*
X143738839Y-88070582D01*
X143410625Y-87579375D01*
X143112239Y-87380000D01*
X143410625Y-87180625D01*
X143738839Y-86689418D01*
X143854092Y-86110000D01*
X143738839Y-85530582D01*
X143410625Y-85039375D01*
X143112239Y-84840000D01*
X143410625Y-84640625D01*
X143738839Y-84149418D01*
X143854092Y-83570000D01*
X143738839Y-82990582D01*
X143410625Y-82499375D01*
X143388967Y-82484904D01*
X143549698Y-82418327D01*
X143728327Y-82239699D01*
X143825000Y-82006310D01*
X143825000Y-81315750D01*
X143666250Y-81157000D01*
X142467000Y-81157000D01*
X142467000Y-81177000D01*
X142213000Y-81177000D01*
X142213000Y-81157000D01*
X141013750Y-81157000D01*
X140855000Y-81315750D01*
X140855000Y-82006310D01*
X140951673Y-82239699D01*
X141130302Y-82418327D01*
X141291033Y-82484904D01*
X141269375Y-82499375D01*
X140941161Y-82990582D01*
X140825908Y-83570000D01*
X140941161Y-84149418D01*
X141269375Y-84640625D01*
X141567761Y-84840000D01*
X141269375Y-85039375D01*
X140941161Y-85530582D01*
X140825908Y-86110000D01*
X140941161Y-86689418D01*
X141269375Y-87180625D01*
X141567761Y-87380000D01*
X141269375Y-87579375D01*
X141023289Y-87947668D01*
X140860423Y-87980064D01*
X140697689Y-88088800D01*
X139094950Y-88088800D01*
X139105000Y-88078750D01*
X139105000Y-88048690D01*
X139096783Y-88028852D01*
X139117440Y-87925000D01*
X139117440Y-87675000D01*
X139068157Y-87427235D01*
X138927809Y-87217191D01*
X138717765Y-87076843D01*
X138550250Y-87043523D01*
X138550250Y-85242931D01*
X138576765Y-85237657D01*
X138786809Y-85097309D01*
X138927157Y-84887265D01*
X138976440Y-84639500D01*
X138976440Y-83889500D01*
X138927157Y-83641735D01*
X138786809Y-83431691D01*
X138626850Y-83324809D01*
X138709400Y-83125516D01*
X138709400Y-82736484D01*
X138560523Y-82377064D01*
X138285436Y-82101977D01*
X137926016Y-81953100D01*
X137536984Y-81953100D01*
X137177564Y-82101977D01*
X136902477Y-82377064D01*
X136753600Y-82736484D01*
X136753600Y-83125516D01*
X136835066Y-83322192D01*
X136789898Y-83352373D01*
X136788698Y-83351173D01*
X136555309Y-83254500D01*
X136114750Y-83254500D01*
X135956000Y-83413250D01*
X135956000Y-84137500D01*
X135976000Y-84137500D01*
X135976000Y-84391500D01*
X135956000Y-84391500D01*
X135956000Y-84411500D01*
X135702000Y-84411500D01*
X135702000Y-84391500D01*
X134752750Y-84391500D01*
X134594000Y-84550250D01*
X134594000Y-84765810D01*
X134650644Y-84902560D01*
X134595000Y-84902560D01*
X134470000Y-84927424D01*
X134345000Y-84902560D01*
X134095000Y-84902560D01*
X133970000Y-84927424D01*
X133845000Y-84902560D01*
X133595000Y-84902560D01*
X133470000Y-84927424D01*
X133345000Y-84902560D01*
X133095000Y-84902560D01*
X132970000Y-84927424D01*
X132845000Y-84902560D01*
X132595000Y-84902560D01*
X132470000Y-84927424D01*
X132345000Y-84902560D01*
X132329659Y-84902560D01*
X132360000Y-84829310D01*
X132360000Y-84613750D01*
X132201250Y-84455000D01*
X131252000Y-84455000D01*
X131252000Y-84475000D01*
X130998000Y-84475000D01*
X130998000Y-84455000D01*
X130978000Y-84455000D01*
X130978000Y-84201000D01*
X130998000Y-84201000D01*
X130998000Y-83476750D01*
X131252000Y-83476750D01*
X131252000Y-84201000D01*
X132201250Y-84201000D01*
X132360000Y-84042250D01*
X132360000Y-83826690D01*
X132333698Y-83763190D01*
X134594000Y-83763190D01*
X134594000Y-83978750D01*
X134752750Y-84137500D01*
X135702000Y-84137500D01*
X135702000Y-83413250D01*
X135543250Y-83254500D01*
X135102691Y-83254500D01*
X134869302Y-83351173D01*
X134690673Y-83529801D01*
X134594000Y-83763190D01*
X132333698Y-83763190D01*
X132263327Y-83593301D01*
X132084698Y-83414673D01*
X131851309Y-83318000D01*
X131410750Y-83318000D01*
X131252000Y-83476750D01*
X130998000Y-83476750D01*
X130839250Y-83318000D01*
X130398691Y-83318000D01*
X130165302Y-83414673D01*
X130164102Y-83415873D01*
X130072765Y-83354843D01*
X129891750Y-83318837D01*
X129891750Y-82975032D01*
X130009265Y-82951657D01*
X130100602Y-82890627D01*
X130101802Y-82891827D01*
X130335191Y-82988500D01*
X130775750Y-82988500D01*
X130934500Y-82829750D01*
X130934500Y-82105500D01*
X131188500Y-82105500D01*
X131188500Y-82829750D01*
X131347250Y-82988500D01*
X131787809Y-82988500D01*
X132021198Y-82891827D01*
X132199827Y-82713199D01*
X132296500Y-82479810D01*
X132296500Y-82264250D01*
X132137750Y-82105500D01*
X131188500Y-82105500D01*
X130934500Y-82105500D01*
X130914500Y-82105500D01*
X130914500Y-81851500D01*
X130934500Y-81851500D01*
X130934500Y-81127250D01*
X131188500Y-81127250D01*
X131188500Y-81851500D01*
X132137750Y-81851500D01*
X132296500Y-81692750D01*
X132296500Y-81477190D01*
X132199827Y-81243801D01*
X132021198Y-81065173D01*
X131787809Y-80968500D01*
X131347250Y-80968500D01*
X131188500Y-81127250D01*
X130934500Y-81127250D01*
X130775750Y-80968500D01*
X130335191Y-80968500D01*
X130101802Y-81065173D01*
X130100602Y-81066373D01*
X130009265Y-81005343D01*
X129761500Y-80956060D01*
X128561500Y-80956060D01*
X128313735Y-81005343D01*
X128103691Y-81145691D01*
X127963343Y-81355735D01*
X127914060Y-81603500D01*
X127914060Y-82353500D01*
X127944833Y-82508208D01*
X127694977Y-82758064D01*
X127546100Y-83117484D01*
X127546100Y-83506516D01*
X127694977Y-83865936D01*
X127970064Y-84141023D01*
X127977560Y-84144128D01*
X127977560Y-84703000D01*
X128026843Y-84950765D01*
X128153821Y-85140800D01*
X126786589Y-85140800D01*
X125012424Y-83366636D01*
X124972746Y-83307254D01*
X124737496Y-83150064D01*
X124530046Y-83108800D01*
X124530041Y-83108800D01*
X124460000Y-83094868D01*
X124389959Y-83108800D01*
X116402041Y-83108800D01*
X116331999Y-83094868D01*
X116261958Y-83108800D01*
X116261954Y-83108800D01*
X116054504Y-83150064D01*
X115819254Y-83307254D01*
X115779576Y-83366636D01*
X115676033Y-83470179D01*
X115616653Y-83509856D01*
X115576977Y-83569235D01*
X115576975Y-83569237D01*
X115518347Y-83656980D01*
X115459463Y-83745106D01*
X115418199Y-83952556D01*
X115418199Y-83952560D01*
X115404267Y-84022601D01*
X115418199Y-84092642D01*
X115418199Y-84694410D01*
X114901806Y-84178018D01*
X114935000Y-84097881D01*
X114935000Y-83542119D01*
X114722320Y-83028663D01*
X114329337Y-82635680D01*
X114138353Y-82556572D01*
X114269143Y-82502397D01*
X114338608Y-82260213D01*
X113538000Y-81459605D01*
X112737392Y-82260213D01*
X112806857Y-82502397D01*
X112947393Y-82552535D01*
X112746663Y-82635680D01*
X112353680Y-83028663D01*
X112141000Y-83542119D01*
X112141000Y-84097881D01*
X112257360Y-84378800D01*
X111038589Y-84378800D01*
X110837806Y-84178018D01*
X110871000Y-84097881D01*
X110871000Y-83542119D01*
X110658320Y-83028663D01*
X110265337Y-82635680D01*
X110074353Y-82556572D01*
X110205143Y-82502397D01*
X110274608Y-82260213D01*
X109474000Y-81459605D01*
X108673392Y-82260213D01*
X108742857Y-82502397D01*
X108883393Y-82552535D01*
X108682663Y-82635680D01*
X108289680Y-83028663D01*
X108077000Y-83542119D01*
X108077000Y-84097881D01*
X108289680Y-84611337D01*
X108682663Y-85004320D01*
X108889513Y-85090000D01*
X108682663Y-85175680D01*
X108289680Y-85568663D01*
X108077000Y-86082119D01*
X108077000Y-86637881D01*
X108289680Y-87151337D01*
X108682663Y-87544320D01*
X109196119Y-87757000D01*
X109584271Y-87757000D01*
X109766100Y-87938829D01*
X109766100Y-88078516D01*
X109855000Y-88293139D01*
X109855000Y-89629000D01*
X111004250Y-89629000D01*
X111163000Y-89470250D01*
X111163000Y-88768915D01*
X111297936Y-88713023D01*
X111396709Y-88614250D01*
X111942080Y-88614250D01*
X112014000Y-88628556D01*
X112085920Y-88614250D01*
X112085921Y-88614250D01*
X112115513Y-88608364D01*
X112106064Y-88622505D01*
X112064800Y-88829955D01*
X112064800Y-88829959D01*
X112050868Y-88900000D01*
X112064800Y-88970042D01*
X112064800Y-88980820D01*
X111868191Y-89112191D01*
X111727843Y-89322235D01*
X111678560Y-89570000D01*
X111678560Y-90770000D01*
X111727843Y-91017765D01*
X111868191Y-91227809D01*
X111931334Y-91270000D01*
X111868191Y-91312191D01*
X111727843Y-91522235D01*
X111678560Y-91770000D01*
X111678560Y-92970000D01*
X111727843Y-93217765D01*
X111775958Y-93289774D01*
X111762758Y-93292400D01*
X111762754Y-93292400D01*
X111555304Y-93333664D01*
X111522801Y-93355382D01*
X111379435Y-93451176D01*
X111379433Y-93451178D01*
X111320054Y-93490854D01*
X111280378Y-93550233D01*
X111044534Y-93786078D01*
X110985809Y-93698191D01*
X110775765Y-93557843D01*
X110528000Y-93508560D01*
X108928000Y-93508560D01*
X108680235Y-93557843D01*
X108470191Y-93698191D01*
X108329843Y-93908235D01*
X108280560Y-94156000D01*
X108280560Y-96156000D01*
X108329843Y-96403765D01*
X108470191Y-96613809D01*
X108680235Y-96754157D01*
X108928000Y-96803440D01*
X110528000Y-96803440D01*
X110775765Y-96754157D01*
X110985809Y-96613809D01*
X111126157Y-96403765D01*
X111175440Y-96156000D01*
X111175440Y-95680577D01*
X111193146Y-95668746D01*
X111232824Y-95609364D01*
X112127389Y-94714800D01*
X115222359Y-94714800D01*
X115292400Y-94728732D01*
X115362441Y-94714800D01*
X115362446Y-94714800D01*
X115569896Y-94673536D01*
X115805146Y-94516346D01*
X115844824Y-94456964D01*
X116575778Y-93726011D01*
X122814761Y-93726011D01*
X122941750Y-93853000D01*
X123891000Y-93853000D01*
X123891000Y-93833000D01*
X124145000Y-93833000D01*
X124145000Y-93853000D01*
X124165000Y-93853000D01*
X124165000Y-94107000D01*
X124145000Y-94107000D01*
X124145000Y-94127000D01*
X123891000Y-94127000D01*
X123891000Y-94107000D01*
X122941750Y-94107000D01*
X122920998Y-94127752D01*
X122807552Y-94127752D01*
X122448132Y-94276629D01*
X122173045Y-94551716D01*
X122024168Y-94911136D01*
X122024168Y-95300168D01*
X122110877Y-95509501D01*
X112877740Y-95509501D01*
X112807698Y-95495569D01*
X112737656Y-95509501D01*
X112737653Y-95509501D01*
X112530203Y-95550765D01*
X112530202Y-95550766D01*
X112530201Y-95550766D01*
X112354334Y-95668277D01*
X112354332Y-95668279D01*
X112294953Y-95707955D01*
X112255277Y-95767334D01*
X110271778Y-97750834D01*
X110063765Y-97611843D01*
X109816000Y-97562560D01*
X108116000Y-97562560D01*
X107868235Y-97611843D01*
X107710000Y-97717573D01*
X107710000Y-90041750D01*
X108293000Y-90041750D01*
X108293000Y-90882309D01*
X108389673Y-91115698D01*
X108568301Y-91294327D01*
X108801690Y-91391000D01*
X109442250Y-91391000D01*
X109601000Y-91232250D01*
X109601000Y-89883000D01*
X109855000Y-89883000D01*
X109855000Y-91232250D01*
X110013750Y-91391000D01*
X110654310Y-91391000D01*
X110887699Y-91294327D01*
X111066327Y-91115698D01*
X111163000Y-90882309D01*
X111163000Y-90041750D01*
X111004250Y-89883000D01*
X109855000Y-89883000D01*
X109601000Y-89883000D01*
X108451750Y-89883000D01*
X108293000Y-90041750D01*
X107710000Y-90041750D01*
X107710000Y-88629691D01*
X108293000Y-88629691D01*
X108293000Y-89470250D01*
X108451750Y-89629000D01*
X109601000Y-89629000D01*
X109601000Y-88279750D01*
X109442250Y-88121000D01*
X108801690Y-88121000D01*
X108568301Y-88217673D01*
X108389673Y-88396302D01*
X108293000Y-88629691D01*
X107710000Y-88629691D01*
X107710000Y-81072302D01*
X108064856Y-81072302D01*
X108092638Y-81627368D01*
X108251603Y-82011143D01*
X108493787Y-82080608D01*
X109294395Y-81280000D01*
X109653605Y-81280000D01*
X110454213Y-82080608D01*
X110696397Y-82011143D01*
X110883144Y-81487698D01*
X110862353Y-81072302D01*
X112128856Y-81072302D01*
X112156638Y-81627368D01*
X112315603Y-82011143D01*
X112557787Y-82080608D01*
X113358395Y-81280000D01*
X113717605Y-81280000D01*
X114518213Y-82080608D01*
X114760397Y-82011143D01*
X114947144Y-81487698D01*
X114919362Y-80932632D01*
X114760397Y-80548857D01*
X114518213Y-80479392D01*
X113717605Y-81280000D01*
X113358395Y-81280000D01*
X112557787Y-80479392D01*
X112315603Y-80548857D01*
X112128856Y-81072302D01*
X110862353Y-81072302D01*
X110855362Y-80932632D01*
X110696397Y-80548857D01*
X110454213Y-80479392D01*
X109653605Y-81280000D01*
X109294395Y-81280000D01*
X108493787Y-80479392D01*
X108251603Y-80548857D01*
X108064856Y-81072302D01*
X107710000Y-81072302D01*
X107710000Y-80299787D01*
X108673392Y-80299787D01*
X109474000Y-81100395D01*
X110274608Y-80299787D01*
X112737392Y-80299787D01*
X113538000Y-81100395D01*
X114338608Y-80299787D01*
X114269143Y-80057603D01*
X114258176Y-80053690D01*
X140855000Y-80053690D01*
X140855000Y-80744250D01*
X141013750Y-80903000D01*
X142213000Y-80903000D01*
X142213000Y-79703750D01*
X142467000Y-79703750D01*
X142467000Y-80903000D01*
X143666250Y-80903000D01*
X143825000Y-80744250D01*
X143825000Y-80053690D01*
X143728327Y-79820301D01*
X143549698Y-79641673D01*
X143316309Y-79545000D01*
X142625750Y-79545000D01*
X142467000Y-79703750D01*
X142213000Y-79703750D01*
X142054250Y-79545000D01*
X141363691Y-79545000D01*
X141130302Y-79641673D01*
X140951673Y-79820301D01*
X140855000Y-80053690D01*
X114258176Y-80053690D01*
X113745698Y-79870856D01*
X113190632Y-79898638D01*
X112806857Y-80057603D01*
X112737392Y-80299787D01*
X110274608Y-80299787D01*
X110205143Y-80057603D01*
X109681698Y-79870856D01*
X109126632Y-79898638D01*
X108742857Y-80057603D01*
X108673392Y-80299787D01*
X107710000Y-80299787D01*
X107710000Y-79410752D01*
X144070001Y-79449248D01*
G36*
X131272000Y-96901000D02*
X131252000Y-96901000D01*
X131252000Y-97625250D01*
X131410750Y-97784000D01*
X131851309Y-97784000D01*
X132084698Y-97687327D01*
X132232367Y-97539658D01*
X132232368Y-98348800D01*
X129834589Y-98348800D01*
X129282229Y-97796440D01*
X129825000Y-97796440D01*
X130072765Y-97747157D01*
X130164102Y-97686127D01*
X130165302Y-97687327D01*
X130398691Y-97784000D01*
X130839250Y-97784000D01*
X130998000Y-97625250D01*
X130998000Y-96901000D01*
X130978000Y-96901000D01*
X130978000Y-96794903D01*
X131098997Y-96770835D01*
X131272000Y-96655237D01*
X131272000Y-96901000D01*
X131272000Y-96901000D01*
G37*
X131272000Y-96901000D02*
X131252000Y-96901000D01*
X131252000Y-97625250D01*
X131410750Y-97784000D01*
X131851309Y-97784000D01*
X132084698Y-97687327D01*
X132232367Y-97539658D01*
X132232368Y-98348800D01*
X129834589Y-98348800D01*
X129282229Y-97796440D01*
X129825000Y-97796440D01*
X130072765Y-97747157D01*
X130164102Y-97686127D01*
X130165302Y-97687327D01*
X130398691Y-97784000D01*
X130839250Y-97784000D01*
X130998000Y-97625250D01*
X130998000Y-96901000D01*
X130978000Y-96901000D01*
X130978000Y-96794903D01*
X131098997Y-96770835D01*
X131272000Y-96655237D01*
X131272000Y-96901000D01*
G36*
X136522560Y-87675000D02*
X136522560Y-87925000D01*
X136543217Y-88028852D01*
X136535000Y-88048690D01*
X136535000Y-88078750D01*
X136557647Y-88101397D01*
X136571843Y-88172765D01*
X136656859Y-88300000D01*
X136571843Y-88427235D01*
X136557647Y-88498603D01*
X136535000Y-88521250D01*
X136535000Y-88551310D01*
X136543217Y-88571148D01*
X136522560Y-88675000D01*
X136522560Y-88925000D01*
X136547424Y-89050000D01*
X136522560Y-89175000D01*
X136522560Y-89425000D01*
X136547424Y-89550000D01*
X136522560Y-89675000D01*
X136522560Y-89925000D01*
X136547424Y-90050000D01*
X136522560Y-90175000D01*
X136522560Y-90425000D01*
X136547424Y-90550000D01*
X136522560Y-90675000D01*
X136522560Y-90925000D01*
X136547424Y-91050000D01*
X136522560Y-91175000D01*
X136522560Y-91425000D01*
X136547424Y-91550000D01*
X136522560Y-91675000D01*
X136522560Y-91925000D01*
X136547424Y-92050000D01*
X136522560Y-92175000D01*
X136522560Y-92425000D01*
X136547424Y-92550000D01*
X136522560Y-92675000D01*
X136522560Y-92925000D01*
X136547424Y-93050000D01*
X136522560Y-93175000D01*
X136522560Y-93425000D01*
X136566648Y-93646648D01*
X136345000Y-93602560D01*
X136095000Y-93602560D01*
X135991148Y-93623217D01*
X135971310Y-93615000D01*
X135941250Y-93615000D01*
X135918603Y-93637647D01*
X135847235Y-93651843D01*
X135720000Y-93736859D01*
X135592765Y-93651843D01*
X135521397Y-93637647D01*
X135498750Y-93615000D01*
X135468690Y-93615000D01*
X135448852Y-93623217D01*
X135345000Y-93602560D01*
X135095000Y-93602560D01*
X134970000Y-93627424D01*
X134931200Y-93619706D01*
X134931200Y-91033108D01*
X134945132Y-90963066D01*
X134931200Y-90893022D01*
X134931200Y-90893021D01*
X134889936Y-90685571D01*
X134889935Y-90685569D01*
X134772424Y-90509702D01*
X134772420Y-90509698D01*
X134732745Y-90450321D01*
X134673369Y-90410647D01*
X132090622Y-87827901D01*
X132535658Y-87827901D01*
X132605699Y-87841833D01*
X132675740Y-87827901D01*
X132675745Y-87827901D01*
X132883195Y-87786637D01*
X133118445Y-87629447D01*
X133158123Y-87570065D01*
X133173364Y-87554824D01*
X133232746Y-87515146D01*
X133244577Y-87497440D01*
X133345000Y-87497440D01*
X133470000Y-87472576D01*
X133595000Y-87497440D01*
X133845000Y-87497440D01*
X133970000Y-87472576D01*
X134095000Y-87497440D01*
X134345000Y-87497440D01*
X134470000Y-87472576D01*
X134595000Y-87497440D01*
X134845000Y-87497440D01*
X134970000Y-87472576D01*
X135095000Y-87497440D01*
X135345000Y-87497440D01*
X135470000Y-87472576D01*
X135595000Y-87497440D01*
X135845000Y-87497440D01*
X135970000Y-87472576D01*
X136095000Y-87497440D01*
X136345000Y-87497440D01*
X136566648Y-87453352D01*
X136522560Y-87675000D01*
X136522560Y-87675000D01*
G37*
X136522560Y-87675000D02*
X136522560Y-87925000D01*
X136543217Y-88028852D01*
X136535000Y-88048690D01*
X136535000Y-88078750D01*
X136557647Y-88101397D01*
X136571843Y-88172765D01*
X136656859Y-88300000D01*
X136571843Y-88427235D01*
X136557647Y-88498603D01*
X136535000Y-88521250D01*
X136535000Y-88551310D01*
X136543217Y-88571148D01*
X136522560Y-88675000D01*
X136522560Y-88925000D01*
X136547424Y-89050000D01*
X136522560Y-89175000D01*
X136522560Y-89425000D01*
X136547424Y-89550000D01*
X136522560Y-89675000D01*
X136522560Y-89925000D01*
X136547424Y-90050000D01*
X136522560Y-90175000D01*
X136522560Y-90425000D01*
X136547424Y-90550000D01*
X136522560Y-90675000D01*
X136522560Y-90925000D01*
X136547424Y-91050000D01*
X136522560Y-91175000D01*
X136522560Y-91425000D01*
X136547424Y-91550000D01*
X136522560Y-91675000D01*
X136522560Y-91925000D01*
X136547424Y-92050000D01*
X136522560Y-92175000D01*
X136522560Y-92425000D01*
X136547424Y-92550000D01*
X136522560Y-92675000D01*
X136522560Y-92925000D01*
X136547424Y-93050000D01*
X136522560Y-93175000D01*
X136522560Y-93425000D01*
X136566648Y-93646648D01*
X136345000Y-93602560D01*
X136095000Y-93602560D01*
X135991148Y-93623217D01*
X135971310Y-93615000D01*
X135941250Y-93615000D01*
X135918603Y-93637647D01*
X135847235Y-93651843D01*
X135720000Y-93736859D01*
X135592765Y-93651843D01*
X135521397Y-93637647D01*
X135498750Y-93615000D01*
X135468690Y-93615000D01*
X135448852Y-93623217D01*
X135345000Y-93602560D01*
X135095000Y-93602560D01*
X134970000Y-93627424D01*
X134931200Y-93619706D01*
X134931200Y-91033108D01*
X134945132Y-90963066D01*
X134931200Y-90893022D01*
X134931200Y-90893021D01*
X134889936Y-90685571D01*
X134889935Y-90685569D01*
X134772424Y-90509702D01*
X134772420Y-90509698D01*
X134732745Y-90450321D01*
X134673369Y-90410647D01*
X132090622Y-87827901D01*
X132535658Y-87827901D01*
X132605699Y-87841833D01*
X132675740Y-87827901D01*
X132675745Y-87827901D01*
X132883195Y-87786637D01*
X133118445Y-87629447D01*
X133158123Y-87570065D01*
X133173364Y-87554824D01*
X133232746Y-87515146D01*
X133244577Y-87497440D01*
X133345000Y-87497440D01*
X133470000Y-87472576D01*
X133595000Y-87497440D01*
X133845000Y-87497440D01*
X133970000Y-87472576D01*
X134095000Y-87497440D01*
X134345000Y-87497440D01*
X134470000Y-87472576D01*
X134595000Y-87497440D01*
X134845000Y-87497440D01*
X134970000Y-87472576D01*
X135095000Y-87497440D01*
X135345000Y-87497440D01*
X135470000Y-87472576D01*
X135595000Y-87497440D01*
X135845000Y-87497440D01*
X135970000Y-87472576D01*
X136095000Y-87497440D01*
X136345000Y-87497440D01*
X136566648Y-87453352D01*
X136522560Y-87675000D01*
G36*
X121340560Y-87488000D02*
X121389843Y-87735765D01*
X121530191Y-87945809D01*
X121740235Y-88086157D01*
X121988000Y-88135440D01*
X123418000Y-88135440D01*
X123665765Y-88086157D01*
X123875809Y-87945809D01*
X124016157Y-87735765D01*
X124040560Y-87613082D01*
X124040560Y-87751000D01*
X124089843Y-87998765D01*
X124182878Y-88138000D01*
X124089843Y-88277235D01*
X124040560Y-88525000D01*
X124040560Y-88662918D01*
X124016157Y-88540235D01*
X123875809Y-88330191D01*
X123665765Y-88189843D01*
X123418000Y-88140560D01*
X121988000Y-88140560D01*
X121740235Y-88189843D01*
X121530191Y-88330191D01*
X121389843Y-88540235D01*
X121340560Y-88788000D01*
X121340560Y-91638000D01*
X121389843Y-91885765D01*
X121530191Y-92095809D01*
X121740235Y-92236157D01*
X121988000Y-92285440D01*
X123418000Y-92285440D01*
X123665765Y-92236157D01*
X123875809Y-92095809D01*
X124016157Y-91885765D01*
X124065440Y-91638000D01*
X124065440Y-90920143D01*
X124252496Y-90882936D01*
X124325610Y-90834082D01*
X124328927Y-90839047D01*
X124287673Y-90880302D01*
X124191000Y-91113691D01*
X124191000Y-91181250D01*
X124349750Y-91340000D01*
X125272227Y-91340000D01*
X125284104Y-91347936D01*
X125491554Y-91389200D01*
X125491559Y-91389200D01*
X125561600Y-91403132D01*
X125623000Y-91390919D01*
X125623000Y-91540000D01*
X125603000Y-91540000D01*
X125603000Y-91568694D01*
X125584694Y-91587000D01*
X125349000Y-91587000D01*
X125349000Y-91540000D01*
X124349750Y-91540000D01*
X124191000Y-91698750D01*
X124191000Y-91766309D01*
X124287673Y-91999698D01*
X124328927Y-92040953D01*
X124227843Y-92192235D01*
X124205689Y-92303611D01*
X118539660Y-92303611D01*
X118834698Y-92008573D01*
X118894074Y-91968899D01*
X118933749Y-91909522D01*
X118933753Y-91909518D01*
X119041959Y-91747576D01*
X119051265Y-91733649D01*
X119092529Y-91526199D01*
X119092529Y-91526195D01*
X119106461Y-91456153D01*
X119092529Y-91386111D01*
X119092529Y-88127777D01*
X121340560Y-85879747D01*
X121340560Y-87488000D01*
X121340560Y-87488000D01*
G37*
X121340560Y-87488000D02*
X121389843Y-87735765D01*
X121530191Y-87945809D01*
X121740235Y-88086157D01*
X121988000Y-88135440D01*
X123418000Y-88135440D01*
X123665765Y-88086157D01*
X123875809Y-87945809D01*
X124016157Y-87735765D01*
X124040560Y-87613082D01*
X124040560Y-87751000D01*
X124089843Y-87998765D01*
X124182878Y-88138000D01*
X124089843Y-88277235D01*
X124040560Y-88525000D01*
X124040560Y-88662918D01*
X124016157Y-88540235D01*
X123875809Y-88330191D01*
X123665765Y-88189843D01*
X123418000Y-88140560D01*
X121988000Y-88140560D01*
X121740235Y-88189843D01*
X121530191Y-88330191D01*
X121389843Y-88540235D01*
X121340560Y-88788000D01*
X121340560Y-91638000D01*
X121389843Y-91885765D01*
X121530191Y-92095809D01*
X121740235Y-92236157D01*
X121988000Y-92285440D01*
X123418000Y-92285440D01*
X123665765Y-92236157D01*
X123875809Y-92095809D01*
X124016157Y-91885765D01*
X124065440Y-91638000D01*
X124065440Y-90920143D01*
X124252496Y-90882936D01*
X124325610Y-90834082D01*
X124328927Y-90839047D01*
X124287673Y-90880302D01*
X124191000Y-91113691D01*
X124191000Y-91181250D01*
X124349750Y-91340000D01*
X125272227Y-91340000D01*
X125284104Y-91347936D01*
X125491554Y-91389200D01*
X125491559Y-91389200D01*
X125561600Y-91403132D01*
X125623000Y-91390919D01*
X125623000Y-91540000D01*
X125603000Y-91540000D01*
X125603000Y-91568694D01*
X125584694Y-91587000D01*
X125349000Y-91587000D01*
X125349000Y-91540000D01*
X124349750Y-91540000D01*
X124191000Y-91698750D01*
X124191000Y-91766309D01*
X124287673Y-91999698D01*
X124328927Y-92040953D01*
X124227843Y-92192235D01*
X124205689Y-92303611D01*
X118539660Y-92303611D01*
X118834698Y-92008573D01*
X118894074Y-91968899D01*
X118933749Y-91909522D01*
X118933753Y-91909518D01*
X119041959Y-91747576D01*
X119051265Y-91733649D01*
X119092529Y-91526199D01*
X119092529Y-91526195D01*
X119106461Y-91456153D01*
X119092529Y-91386111D01*
X119092529Y-88127777D01*
X121340560Y-85879747D01*
X121340560Y-87488000D01*
G36*
X118423000Y-86785730D02*
X118423000Y-86348750D01*
X118264250Y-86190000D01*
X117200000Y-86190000D01*
X117200000Y-87964250D01*
X117358750Y-88123000D01*
X117670130Y-88123000D01*
X117670130Y-88153000D01*
X117358750Y-88153000D01*
X117200000Y-88311750D01*
X117200000Y-90086000D01*
X117220000Y-90086000D01*
X117220000Y-90340000D01*
X117200000Y-90340000D01*
X117200000Y-90360000D01*
X116946000Y-90360000D01*
X116946000Y-90340000D01*
X116926000Y-90340000D01*
X116926000Y-90086000D01*
X116946000Y-90086000D01*
X116946000Y-88311750D01*
X116840599Y-88206349D01*
X116840599Y-88069651D01*
X116946000Y-87964250D01*
X116946000Y-86190000D01*
X116926000Y-86190000D01*
X116926000Y-85936000D01*
X116946000Y-85936000D01*
X116946000Y-85916000D01*
X117200000Y-85916000D01*
X117200000Y-85936000D01*
X118264250Y-85936000D01*
X118423000Y-85777250D01*
X118423000Y-84531200D01*
X120677529Y-84531200D01*
X118423000Y-86785730D01*
X118423000Y-86785730D01*
G37*
X118423000Y-86785730D02*
X118423000Y-86348750D01*
X118264250Y-86190000D01*
X117200000Y-86190000D01*
X117200000Y-87964250D01*
X117358750Y-88123000D01*
X117670130Y-88123000D01*
X117670130Y-88153000D01*
X117358750Y-88153000D01*
X117200000Y-88311750D01*
X117200000Y-90086000D01*
X117220000Y-90086000D01*
X117220000Y-90340000D01*
X117200000Y-90340000D01*
X117200000Y-90360000D01*
X116946000Y-90360000D01*
X116946000Y-90340000D01*
X116926000Y-90340000D01*
X116926000Y-90086000D01*
X116946000Y-90086000D01*
X116946000Y-88311750D01*
X116840599Y-88206349D01*
X116840599Y-88069651D01*
X116946000Y-87964250D01*
X116946000Y-86190000D01*
X116926000Y-86190000D01*
X116926000Y-85936000D01*
X116946000Y-85936000D01*
X116946000Y-85916000D01*
X117200000Y-85916000D01*
X117200000Y-85936000D01*
X118264250Y-85936000D01*
X118423000Y-85777250D01*
X118423000Y-84531200D01*
X120677529Y-84531200D01*
X118423000Y-86785730D01*
G36*
X127060998Y-89865214D02*
X126959412Y-89966800D01*
X126758880Y-89966800D01*
X126747582Y-89910000D01*
X126902250Y-89910000D01*
X127060998Y-89751252D01*
X127060998Y-89865214D01*
X127060998Y-89865214D01*
G37*
X127060998Y-89865214D02*
X126959412Y-89966800D01*
X126758880Y-89966800D01*
X126747582Y-89910000D01*
X126902250Y-89910000D01*
X127060998Y-89751252D01*
X127060998Y-89865214D01*
G36*
X127335000Y-89027000D02*
X127315000Y-89027000D01*
X127315000Y-89047000D01*
X127061000Y-89047000D01*
X127061000Y-89027000D01*
X127041000Y-89027000D01*
X127041000Y-89018850D01*
X127043238Y-89007599D01*
X127335000Y-89007599D01*
X127335000Y-89027000D01*
X127335000Y-89027000D01*
G37*
X127335000Y-89027000D02*
X127315000Y-89027000D01*
X127315000Y-89047000D01*
X127061000Y-89047000D01*
X127061000Y-89027000D01*
X127041000Y-89027000D01*
X127041000Y-89018850D01*
X127043238Y-89007599D01*
X127335000Y-89007599D01*
X127335000Y-89027000D01*
G36*
X124300946Y-85351800D02*
X124065440Y-85351800D01*
X124065440Y-85120599D01*
X124069745Y-85120599D01*
X124300946Y-85351800D01*
X124300946Y-85351800D01*
G37*
X124300946Y-85351800D02*
X124065440Y-85351800D01*
X124065440Y-85120599D01*
X124069745Y-85120599D01*
X124300946Y-85351800D01*
G04 #@! TD*
M02*
