M48
;DRILL file {KiCad 5.0.0-rc2-unknown-a288d61~65~ubuntu18.04.1} date Mon Jun 25 15:59:05 2018
;FORMAT={-:-/ absolute / inch / decimal}
FMAT,2
INCH,TZ
T1C0.0130
T2C0.0300
T3C0.0394
%
G90
G05
M72
T1
X4.36Y-3.46
X4.6898Y-3.3559
X4.7268Y-3.4913
X4.8426Y-3.7443
X4.9Y-3.36
X4.9841Y-3.5386
X5.02Y-3.71
X5.06Y-3.28
X5.09Y-3.75
X5.12Y-3.7
X5.1339Y-3.5606
X5.1538Y-3.6351
X5.1619Y-3.6031
X5.1886Y-3.6928
X5.2002Y-3.7813
X5.2115Y-3.8281
X5.2204Y-3.6837
X5.2996Y-3.2811
X5.32Y-3.81
X5.348Y-3.4583
X5.3992Y-3.3898
X5.42Y-3.76
X5.4225Y-3.265
T2
X4.47Y-3.2
X4.47Y-3.3
X4.47Y-3.4
X4.31Y-3.2
X4.31Y-3.3
X4.31Y-3.4
T3
X5.6039Y-3.1902
X5.6039Y-3.2902
X5.6039Y-3.3902
X5.6039Y-3.4902
X5.6039Y-3.5902
X5.6039Y-3.6902
X5.6201Y-3.8906
X4.29Y-3.9
X4.39Y-3.9
X4.49Y-3.9
X4.59Y-3.9
X4.69Y-3.9
X4.79Y-3.9
T0
M30
